<?xml version="1.0" standalone="no"?>
<!DOCTYPE svg PUBLIC "-//W3C//DTD SVG 1.1//EN" "http://www.w3.org/Graphics/SVG/1.1/DTD/svg11.dtd" >
<svg xmlns="http://www.w3.org/2000/svg" xmlns:xlink="http://www.w3.org/1999/xlink" version="1.1">
<metadata>
Created by FontForge 20170731 at Thu Jun 10 07:19:35 2021
 By Aleksey,,,
(c) 1990, 2001, 2002 Adobe Systems Incorporated. All rights reserved. (c) 1981, 2001, 2002 Heidelberger Druckmaschinen AG. All rights reserved.
</metadata>
<defs>
<font id="NeuzeitSLTStd-Book" horiz-adv-x="1138" >
  <font-face 
    font-family="Neuzeit S LT Std Book"
    font-weight="400"
    font-stretch="normal"
    units-per-em="2048"
    panose-1="2 11 5 3 2 2 4 2 2 3"
    ascent="1540"
    descent="-508"
    x-height="1024"
    cap-height="1540"
    bbox="-371 -459 2048 2003"
    underline-thickness="102"
    underline-position="-307"
    unicode-range="U+0020-FB02"
  />
<missing-glyph horiz-adv-x="1024" 
d="M0 0v1434h1024v-1434h-1024zM512 809l348 522h-696zM573 717l349 -522v1044zM164 102h696l-348 523zM102 1239v-1044l349 522z" />
    <glyph glyph-name="f_i" unicode="fi" 
d="M254 0v893h-191v131h191v293q0 78 36.5 130t89.5 72.5t120 20.5q90 0 121 -6v-156q-27 6 -97 6q-110 0 -110 -102v-258h207v-131h-207v-893h-160zM831 0v1024h160v-1024h-160zM911 1298q-51 0 -85.5 35t-34.5 86t34.5 86t85.5 35t86 -35t35 -86t-35 -86t-86 -35z" />
    <glyph glyph-name="f_l" unicode="fl" 
d="M254 0v893h-191v131h191v293q0 78 36.5 130t89.5 72.5t120 20.5q90 0 121 -6v-156q-27 6 -97 6q-110 0 -110 -102v-258h207v-131h-207v-893h-160zM831 0v1540h160v-1540h-160z" />
    <glyph glyph-name=".notdef" horiz-adv-x="1024" 
d="M0 0v1434h1024v-1434h-1024zM512 809l348 522h-696zM573 717l349 -522v1044zM164 102h696l-348 523zM102 1239v-1044l349 522z" />
    <glyph glyph-name=".null" horiz-adv-x="0" 
 />
    <glyph glyph-name="nonmarkingreturn" horiz-adv-x="682" 
 />
    <glyph glyph-name="space" unicode=" " horiz-adv-x="569" 
 />
    <glyph glyph-name="exclam" unicode="!" horiz-adv-x="684" 
d="M262 350v1190h160v-1190h-160zM227 90q0 47 34 81t81 34t81 -34t34 -81t-34 -81t-81 -34t-81 34t-34 81z" />
    <glyph glyph-name="quotedbl" unicode="&#x22;" horiz-adv-x="681" 
d="M449 1024v516h159v-516h-159zM74 1024v516h159v-516h-159z" />
    <glyph glyph-name="numbersign" unicode="#" 
d="M678 588l47 340h-264l-47 -340h264zM596 0l66 469h-265l-65 -469h-131l65 469h-221v119h238l47 340h-221v119h237l66 469h131l-66 -469h264l66 469h131l-66 -469h222v-119h-238l-47 -340h221v-119h-237l-66 -469h-131z" />
    <glyph glyph-name="dollar" unicode="$" 
d="M623 676v-557q128 11 195 82.5t67 197.5q0 214 -262 277zM516 119v586q-46 13 -73.5 21.5t-75.5 28t-78.5 38.5t-67.5 51.5t-58.5 69.5t-36.5 89.5t-15 114.5q0 108 45 198.5t138.5 152t221.5 71.5v154h107v-154q54 -3 104.5 -15.5t105 -43t95.5 -76t70 -120.5t36 -171
h-172q-2 33 -5 57t-17.5 66t-38 71t-69.5 55t-109 34v-541q107 -27 184 -62.5t135 -85.5t86.5 -118.5t28.5 -157.5q0 -183 -109.5 -308t-324.5 -149v-237h-107v237q-108 6 -190 42.5t-133 97.5t-78 137.5t-33 169.5h172q3 -54 17.5 -101t43.5 -90.5t80.5 -73t120.5 -38.5z
M516 887v510q-103 -6 -168 -80t-65 -176q0 -49 14 -87.5t34 -63.5t54 -46t62 -32.5t69 -24.5z" />
    <glyph glyph-name="percent" unicode="%" horiz-adv-x="2048" 
d="M733 1161q0 117 -41.5 188.5t-128.5 71.5t-128.5 -71.5t-41.5 -188.5t41.5 -188.5t128.5 -71.5t128.5 71.5t41.5 188.5zM233 1161q0 95 29.5 170t78 119t105.5 67t117 23q61 0 118 -23t105 -67t77.5 -119t29.5 -170t-29.5 -170t-77.5 -119t-105 -67t-118 -23
q-60 0 -117 23t-105.5 67t-78 119t-29.5 170zM1655 354q0 117 -41.5 188.5t-128.5 71.5t-128.5 -71.5t-41.5 -188.5t41.5 -188.5t128.5 -71.5t128.5 71.5t41.5 188.5zM1155 354q0 95 29.5 170t78 119t105.5 67t117 23q61 0 118 -23t105 -67t77.5 -119t29.5 -170t-29.5 -170
t-77.5 -119t-105 -67t-118 -23q-60 0 -117 23t-105.5 67t-78 119t-29.5 170zM485 -70l949 1655h129l-949 -1655h-129z" />
    <glyph glyph-name="ampersand" unicode="&#x26;" horiz-adv-x="1478" 
d="M1163 0l-116 166q-69 -81 -179 -138t-252 -57q-201 0 -321.5 121.5t-120.5 310.5q0 44 8 85.5t19.5 74t32.5 64.5t38.5 54.5t46.5 47.5t47.5 39t50.5 33.5t47 27t45 23t36 18.5q-50 72 -74 111.5t-46 100.5t-22 120q0 49 18.5 98.5t54.5 94t98.5 72.5t142.5 28
q145 0 223 -81.5t78 -203.5q0 -100 -40 -172t-126 -137l-94 -72l297 -413q67 127 84 260h159q-15 -95 -54.5 -201.5t-92.5 -175.5l215 -299h-203zM965 268l-344 488q-139 -74 -207 -154.5t-68 -195.5q0 -52 18 -102.5t52.5 -93.5t92 -69t128.5 -26q103 0 187.5 42t140.5 111
zM563 1190q0 -56 27.5 -107t91.5 -139q176 116 176 252q0 76 -39 122t-104 46t-108.5 -43t-43.5 -131z" />
    <glyph glyph-name="quotesingle" unicode="'" horiz-adv-x="569" 
d="M205 1024v516h160v-516h-160z" />
    <glyph glyph-name="parenleft" unicode="(" horiz-adv-x="684" 
d="M659 -303l-122 -105q-53 62 -94 116t-101.5 156t-100 203t-69 244t-29.5 293t29.5 293t69 244t100 203t101.5 156t94 116l122 -105q-47 -51 -91.5 -111t-94 -148.5t-86 -183.5t-60.5 -217t-24 -247t24 -247t60.5 -217t86 -183.5t94 -148.5t91.5 -111z" />
    <glyph glyph-name="parenright" unicode=")" horiz-adv-x="684" 
d="M147 -408l-122 105q47 51 91.5 111t94 148.5t86 183.5t60.5 217t24 247t-24 247t-60.5 217t-86 183.5t-94 148.5t-91.5 111l122 105q53 -62 94 -116t101.5 -156t100 -203t69 -244t29.5 -293t-29.5 -293t-69 -244t-100 -203t-101.5 -156t-94 -116z" />
    <glyph glyph-name="asterisk" unicode="*" 
d="M492 1143l-291 96l32 102l283 -102v301h107v-301l278 102l37 -102l-291 -96l189 -244l-91 -65l-176 251l-176 -251l-90 65z" />
    <glyph glyph-name="plus" unicode="+" horiz-adv-x="1228" 
d="M555 0v459h-459v119h459v458h119v-458h459v-119h-459v-459h-119z" />
    <glyph glyph-name="comma" unicode="," horiz-adv-x="569" 
d="M29 -287l202 529l162 -78l-258 -496z" />
    <glyph glyph-name="hyphen" unicode="-" horiz-adv-x="684" 
d="M90 459v155h504v-155h-504z" />
    <glyph glyph-name="period" unicode="." horiz-adv-x="569" 
d="M170 90q0 47 34 81t81 34t80.5 -34t33.5 -81t-33.5 -81t-80.5 -34t-81 34t-34 81z" />
    <glyph glyph-name="slash" unicode="/" horiz-adv-x="796" 
d="M33 -29l600 1598h131l-600 -1598h-131z" />
    <glyph glyph-name="zero" unicode="0" 
d="M569 -25q-84 0 -153.5 24t-119.5 65t-89 100.5t-63.5 126.5t-40 147t-21.5 157.5t-6 162.5t6 162t21.5 157.5t40 147t63.5 126t89 100.5t119.5 65t153.5 24q116 0 205 -46t142.5 -120t87.5 -179t46.5 -210t12.5 -227q0 -85 -6 -162.5t-22 -157.5t-40 -147t-63 -126.5
t-89.5 -100.5t-120 -65t-153.5 -24zM569 1397q-72 0 -129.5 -36t-101 -110.5t-67 -199.5t-23.5 -293t23.5 -293t67 -199.5t101 -110.5t129.5 -36t129.5 36t101.5 110.5t67.5 199.5t23.5 293t-23.5 293t-67.5 199.5t-101.5 110.5t-129.5 36z" />
    <glyph glyph-name="one" unicode="1" 
d="M567 0v1278q-128 -99 -301 -170v158q96 37 215 123.5t176 150.5h82v-1540h-172z" />
    <glyph glyph-name="two" unicode="2" 
d="M98 0v145l496 547q119 130 186.5 233.5t67.5 196.5q0 114 -76 188t-207 74q-141 0 -212 -90t-79 -239h-159q2 105 28.5 189t70 138.5t102 90.5t121 51.5t130.5 15.5q214 0 333.5 -116.5t119.5 -295.5q0 -122 -59.5 -232.5t-192.5 -254.5l-451 -485h705v-156h-924z" />
    <glyph glyph-name="three" unicode="3" 
d="M317 731v146l467 483h-639v156h832v-156l-430 -440l4 -5q40 7 70 7q81 0 153.5 -28t130.5 -81t92.5 -139t34.5 -193q0 -101 -32 -191t-92 -161t-155.5 -112.5t-213.5 -41.5q-65 0 -121 10.5t-97.5 26.5t-76 42t-57.5 50t-41.5 58t-29 58.5t-18.5 60t-11 53t-7 45.5
l160 12q16 -136 82 -204t215 -68q148 0 235.5 96t87.5 244q0 152 -93 242t-235 90q-115 0 -202 -68z" />
    <glyph glyph-name="four" unicode="4" 
d="M731 0v416h-659v137l665 987h154v-981h176v-143h-176v-416h-160zM731 559v739h-4l-485 -739h489z" />
    <glyph glyph-name="five" unicode="5" 
d="M121 680l37 836h813v-156h-672l-25 -500h5q92 131 307 131q66 0 128 -16t122 -53.5t104.5 -93.5t72 -143.5t27.5 -195.5q0 -69 -16.5 -138.5t-54.5 -137.5t-92 -120.5t-135.5 -85t-178.5 -32.5q-98 0 -177 22.5t-141.5 69.5t-100.5 126.5t-46 187.5l172 14
q6 -122 81.5 -199t199.5 -77q135 0 226 94.5t91 273.5q0 155 -87 252t-224 97q-196 0 -274 -156h-162z" />
    <glyph glyph-name="six" unicode="6" 
d="M887 465q0 154 -82 244t-234 90q-127 0 -213 -92.5t-86 -239.5q0 -156 79.5 -252t221.5 -96q150 0 232 100t82 246zM1024 1167l-168 -12q-25 115 -84 178.5t-166 63.5q-80 0 -141.5 -37t-99 -96t-63 -146.5t-36 -175t-14.5 -194.5l4 -5q43 87 129 149t217 62
q212 0 334.5 -133.5t122.5 -349.5q0 -97 -33.5 -186.5t-93.5 -158.5t-152 -110t-202 -41q-117 0 -205.5 39.5t-143.5 105.5t-89 164t-47 204t-13 237q0 392 137 603.5t383 211.5q77 0 140.5 -18t105.5 -44.5t75 -64.5t51 -72t30.5 -73t16 -60t5.5 -41z" />
    <glyph glyph-name="seven" unicode="7" 
d="M102 1360v156h922v-170q-207 -319 -356.5 -677t-192.5 -669h-188q16 143 97 385t212.5 516.5t267.5 458.5h-762z" />
    <glyph glyph-name="eight" unicode="8" 
d="M811 1145q0 111 -67.5 181.5t-174.5 70.5q-106 0 -173.5 -71t-67.5 -181t65 -182t176 -72t176.5 72t65.5 182zM569 -25q-111 0 -202.5 35.5t-152 96t-93.5 141t-33 170.5q0 164 76.5 267t218.5 144v5q-111 31 -169 114t-58 199q0 165 116.5 279t296.5 114t297 -114
t117 -279q0 -116 -58 -199t-169 -114v-5q142 -41 218.5 -144t76.5 -267q0 -90 -33 -170.5t-93.5 -141t-152.5 -96t-203 -35.5zM879 438q0 133 -84.5 221.5t-225.5 88.5t-225 -88.5t-84 -221.5q0 -150 83.5 -234.5t225.5 -84.5q143 0 226.5 84.5t83.5 234.5z" />
    <glyph glyph-name="nine" unicode="9" 
d="M866 1049q0 156 -79.5 252t-221.5 96q-150 0 -231.5 -100t-81.5 -246q0 -154 81.5 -244t233.5 -90q127 0 213 92.5t86 239.5zM115 348l168 12q25 -115 83.5 -178t165.5 -63q80 0 141.5 37t99.5 96t63 146.5t36 175t15 194.5l-4 4q-43 -87 -129 -149t-217 -62
q-212 0 -334.5 133.5t-122.5 349.5q0 97 33.5 186.5t93.5 158.5t152 110t202 41q84 0 153.5 -20t120.5 -56t90 -89.5t64 -115.5t41 -139.5t22.5 -157t6.5 -171.5q0 -392 -137 -604t-383 -212q-77 0 -140.5 18t-105.5 44.5t-75 64.5t-51 72t-30.5 73t-16 60t-5.5 41z" />
    <glyph glyph-name="colon" unicode=":" horiz-adv-x="569" 
d="M170 877q0 47 34 80.5t81 33.5t80.5 -33.5t33.5 -80.5t-33.5 -81t-80.5 -34t-81 34t-34 81zM170 90q0 47 34 81t81 34t80.5 -34t33.5 -81t-33.5 -81t-80.5 -34t-81 34t-34 81z" />
    <glyph glyph-name="semicolon" unicode=";" horiz-adv-x="569" 
d="M29 -287l202 529l162 -78l-258 -496zM170 877q0 47 34 80.5t81 33.5t80.5 -33.5t33.5 -80.5t-33.5 -81t-80.5 -34t-81 34t-34 81z" />
    <glyph glyph-name="less" unicode="&#x3c;" horiz-adv-x="1228" 
d="M96 459v119l1037 475v-127l-891 -408l891 -407v-127z" />
    <glyph glyph-name="equal" unicode="=" horiz-adv-x="1228" 
d="M96 662v118h1037v-118h-1037zM96 256v119h1037v-119h-1037z" />
    <glyph glyph-name="greater" unicode="&#x3e;" horiz-adv-x="1228" 
d="M96 111l891 407l-891 408v127l1037 -475v-119l-1037 -475v127z" />
    <glyph glyph-name="question" unicode="?" 
d="M416 350v105q0 139 37 232t149 179q75 57 115.5 100t63 98.5t22.5 127.5q0 102 -62.5 167.5t-171.5 65.5q-123 0 -184 -76.5t-61 -209.5h-160q0 57 9 110.5t36.5 113.5t71 104t119 73t173.5 29q84 0 155.5 -24t127 -70t87.5 -121t32 -170q0 -71 -16 -126.5t-53.5 -105
t-75.5 -85t-107 -89.5q-148 -117 -148 -295v-133h-159zM381 90q0 47 34 81t81 34t80.5 -34t33.5 -81t-33.5 -81t-80.5 -34t-81 34t-34 81z" />
    <glyph glyph-name="at" unicode="@" horiz-adv-x="1638" 
d="M1024 905q0 108 -50.5 160.5t-125.5 52.5q-83 0 -156.5 -48t-120 -121.5t-73.5 -157t-27 -158.5q0 -108 54 -165.5t147 -57.5q95 0 178 78.5t128.5 192t45.5 224.5zM1094 1059l41 139h133l-199 -616q-35 -107 -35 -136q0 -16 14.5 -24t33 -10t51.5 -2q62 0 125 29
t117.5 84t89 148t34.5 208q0 181 -89 314.5t-241.5 201t-349.5 67.5q-146 0 -274 -56t-216.5 -150.5t-139 -223.5t-50.5 -272q0 -194 89 -350t246 -244t351 -88q183 0 337.5 74.5t248.5 205.5h131q-98 -181 -293.5 -284t-437.5 -103q-124 0 -240 33t-216 100t-174.5 161
t-117.5 224t-43 281q0 163 64 311.5t171 255t254 169.5t306 63q175 0 325.5 -54.5t254.5 -148t163.5 -221.5t59.5 -273q0 -120 -46.5 -230t-121 -185.5t-169 -120.5t-189.5 -45q-76 0 -123.5 37t-53.5 108h-4q-129 -145 -272 -145q-141 0 -220 93.5t-79 233.5
q0 112 38 222.5t103.5 198.5t163.5 143t209 55q167 0 236 -178h4z" />
    <glyph glyph-name="A" unicode="A" horiz-adv-x="1368" 
d="M946 590l-260 733h-4l-260 -733h524zM16 0l580 1540h176l580 -1540h-195l-153 434h-639l-154 -434h-195z" />
    <glyph glyph-name="B" unicode="B" horiz-adv-x="1251" 
d="M174 0v1540h496q193 0 305 -105t112 -255q0 -70 -10.5 -126t-36.5 -109.5t-77 -90t-125 -51.5v-4q134 -10 220.5 -104.5t86.5 -270.5q0 -115 -57.5 -211.5t-163.5 -154.5t-240 -58h-510zM346 156h322q144 0 224.5 80t80.5 200q0 38 -11 75.5t-37 74.5t-64 64.5t-98 45
t-134 17.5h-283v-557zM346 856h256q142 0 221.5 73.5t79.5 207.5q0 144 -76 202t-219 58h-262v-541z" />
    <glyph glyph-name="C" unicode="C" horiz-adv-x="1705" 
d="M1595 1053l-174 -13q-56 195 -189.5 284t-320.5 89q-124 0 -226 -37t-170 -99.5t-114.5 -146t-67 -174t-20.5 -186.5t18.5 -185t63 -173.5t111.5 -147t171 -100t234 -37.5q211 0 340 112t181 314l174 -21q-21 -86 -54 -160.5t-91 -150.5t-133 -129.5t-187.5 -87
t-247.5 -33.5q-166 0 -307 56t-242 158t-158 252.5t-57 332.5q0 171 60 320.5t164 254t249 164.5t309 60q141 0 255.5 -34t186 -85.5t124.5 -123.5t78.5 -136.5t39.5 -136.5z" />
    <glyph glyph-name="D" unicode="D" horiz-adv-x="1593" 
d="M190 1540h478q177 0 317 -45t228 -119t146 -175t81.5 -205t23.5 -218q0 -117 -28 -228.5t-88 -211.5t-144.5 -175t-206 -119t-264.5 -44h-543v1540zM362 1384v-1228h338q114 0 210.5 34.5t164 94t114.5 139.5t69 170t22 186t-20.5 181.5t-67.5 164t-117 135t-177 90
t-241 33.5h-295z" />
    <glyph glyph-name="E" unicode="E" 
d="M174 0v1540h868v-156h-696v-516h676v-155h-676v-557h696v-156h-868z" />
    <glyph glyph-name="F" unicode="F" 
d="M174 0v1540h868v-156h-696v-516h676v-155h-676v-713h-172z" />
    <glyph glyph-name="G" unicode="G" horiz-adv-x="1705" 
d="M872 672v155h705q-2 -136 -26.5 -257.5t-79.5 -232.5t-136 -191t-203 -127.5t-274 -47.5q-228 0 -394 101.5t-250.5 281t-84.5 416.5q0 124 30 240t93 217.5t152.5 177.5t215.5 120t275 44q131 0 246 -39.5t196 -105.5t133 -151t66 -177l-170 -17q-15 50 -38.5 94
t-64.5 89.5t-93.5 77.5t-131 52.5t-172.5 20.5q-176 0 -303 -87t-188.5 -232.5t-61.5 -331.5q0 -287 152.5 -461t394.5 -174q113 0 204 35t148 89.5t97.5 129.5t58.5 145.5t25 145.5h-521z" />
    <glyph glyph-name="H" unicode="H" horiz-adv-x="1478" 
d="M174 0v1540h172v-672h787v672h172v-1540h-172v713h-787v-713h-172z" />
    <glyph glyph-name="I" unicode="I" horiz-adv-x="569" 
d="M199 0v1540h172v-1540h-172z" />
    <glyph glyph-name="J" unicode="J" horiz-adv-x="909" 
d="M33 -10v153q63 -16 188 -16q182 0 262 94t80 279v884h-520v156h692v-1077q0 -109 -27.5 -195.5t-85.5 -154.5t-159 -105t-238 -37q-117 0 -192 19z" />
    <glyph glyph-name="K" unicode="K" horiz-adv-x="1251" 
d="M174 0v1540h172v-727h4l643 727h232l-684 -737l694 -803h-238l-647 780h-4v-780h-172z" />
    <glyph glyph-name="L" unicode="L" 
d="M174 0v1540h172v-1384h721v-156h-893z" />
    <glyph glyph-name="M" unicode="M" horiz-adv-x="1933" 
d="M182 0v1540h203l582 -1298l581 1298h203v-1540h-172v1229h-4l-553 -1229h-111l-553 1219h-4v-1219h-172z" />
    <glyph glyph-name="N" unicode="N" horiz-adv-x="1593" 
d="M182 0v1540h187l866 -1270h4v1270h172v-1540h-186l-867 1270h-4v-1270h-172z" />
    <glyph glyph-name="O" unicode="O" horiz-adv-x="1822" 
d="M1509 770q0 96 -20.5 186.5t-67 174t-114.5 146t-170 99.5t-226 37t-226 -37t-170 -99.5t-114.5 -146t-67 -174t-20.5 -186.5q0 -66 14.5 -136t44 -143t79 -138t113 -115.5t153.5 -80.5t194 -30t194 30t153.5 80.5t113 115.5t79 138t44 143t14.5 136zM129 770
q0 171 60 320.5t164 254t249 164.5t309 60q226 0 403 -95.5t278.5 -278.5t101.5 -425q0 -171 -60 -320.5t-164.5 -254t-249.5 -164.5t-309 -60q-169 0 -313 56t-248 158t-162.5 252.5t-58.5 332.5z" />
    <glyph glyph-name="P" unicode="P" horiz-adv-x="1251" 
d="M346 750h266q77 0 141.5 17.5t117.5 53.5t82.5 99t29.5 147q0 161 -95.5 239t-260.5 78h-281v-634zM174 0v1540h490q236 0 369.5 -126t133.5 -349t-145.5 -347t-382.5 -124h-293v-594h-172z" />
    <glyph glyph-name="Q" unicode="Q" horiz-adv-x="1822" 
d="M1602 -70l-205 205q-210 -164 -486 -164q-169 0 -313 56t-248 158t-162.5 252.5t-58.5 332.5q0 171 60 320.5t164 254t249 164.5t309 60q226 0 403 -95.5t278.5 -278.5t101.5 -425q0 -157 -50 -294.5t-141 -242.5l201 -200zM1278 254l-166 166l102 102l162 -162
q67 92 100 200.5t33 209.5q0 96 -20.5 186.5t-67 174t-114.5 146t-170 99.5t-226 37t-226 -37t-170 -99.5t-114.5 -146t-67 -174t-20.5 -186.5q0 -66 14.5 -136t44 -143t79 -138t113 -115.5t153.5 -80.5t194 -30q220 0 367 127z" />
    <glyph glyph-name="R" unicode="R" horiz-adv-x="1251" 
d="M346 815h307q156 0 248 73t92 208q0 66 -19.5 117t-52 82.5t-78.5 52t-94.5 28.5t-105.5 8h-297v-569zM1026 0l-379 659h-301v-659h-172v1540h477q100 0 182 -17t138 -47.5t97.5 -70t65 -87.5t34 -96.5t10.5 -101.5q0 -99 -30 -179t-82.5 -132t-111.5 -84.5t-127 -48.5
l410 -676h-211z" />
    <glyph glyph-name="S" unicode="S" horiz-adv-x="1366" 
d="M1210 1139h-176q-3 39 -15.5 76.5t-40 74t-66 63.5t-97 43.5t-129.5 16.5q-88 0 -156.5 -24t-109.5 -65t-61.5 -91t-20.5 -107q0 -42 14.5 -76t50.5 -68t106.5 -62t172.5 -48q153 -30 252 -63t172 -83.5t105 -121t32 -170.5q0 -90 -33 -170.5t-98 -147t-176.5 -106
t-255.5 -39.5q-258 0 -401.5 120t-155.5 335h174q46 -299 391 -299q95 0 168.5 26t116.5 68.5t64.5 92.5t21.5 104q0 122 -78 178t-289 100q-140 29 -233 62.5t-161.5 83t-100 119t-31.5 165.5q0 191 144 317t374 126q110 0 197 -24t143.5 -63t96 -96t59.5 -116t30 -131z
" />
    <glyph glyph-name="T" unicode="T" 
d="M483 0v1384h-467v156h1106v-156h-467v-1384h-172z" />
    <glyph glyph-name="U" unicode="U" horiz-adv-x="1478" 
d="M174 510v1030h172v-1003q0 -205 105 -307.5t288 -102.5q83 0 152.5 26t124.5 78t86 139t31 201v969h172v-971q0 -147 -44 -262.5t-122 -188t-179.5 -110t-220.5 -37.5q-274 0 -419.5 146.5t-145.5 392.5z" />
    <glyph glyph-name="V" unicode="V" horiz-adv-x="1253" 
d="M551 0l-531 1540h195l414 -1300h4l414 1300h186l-522 -1540h-160z" />
    <glyph glyph-name="W" unicode="W" horiz-adv-x="1933" 
d="M1339 0l-370 1286h-4l-371 -1286h-156l-407 1540h182l303 -1274h4l367 1274h160l366 -1284h4l303 1284h183l-408 -1540h-156z" />
    <glyph glyph-name="X" unicode="X" horiz-adv-x="1253" 
d="M1010 0l-387 651l-392 -651h-211l504 782l-485 758h219l377 -633l377 633h211l-488 -758l498 -782h-223z" />
    <glyph glyph-name="Y" unicode="Y" horiz-adv-x="1253" 
d="M545 0v629l-531 911h211l406 -758l397 758h211l-522 -911v-629h-172z" />
    <glyph glyph-name="Z" unicode="Z" horiz-adv-x="1251" 
d="M43 0v143l946 1241h-872v156h1091v-143l-946 -1241h924v-156h-1143z" />
    <glyph glyph-name="bracketleft" unicode="[" horiz-adv-x="684" 
d="M213 -393v1995h389v-132h-229v-1732h229v-131h-389z" />
    <glyph glyph-name="backslash" unicode="\" horiz-adv-x="796" 
d="M633 -29l-600 1598h131l600 -1598h-131z" />
    <glyph glyph-name="bracketright" unicode="]" horiz-adv-x="684" 
d="M82 -393v131h229v1732h-229v132h389v-1995h-389z" />
    <glyph glyph-name="asciicircum" unicode="^" horiz-adv-x="1228" 
d="M227 608h-131l459 908h119l459 -908h-132l-387 770z" />
    <glyph glyph-name="underscore" unicode="_" horiz-adv-x="1024" 
d="M1024 -256h-1024v102h1024v-102z" />
    <glyph glyph-name="grave" unicode="`" horiz-adv-x="454" 
d="M285 1225l-267 291h222l180 -291h-135z" />
    <glyph glyph-name="a" unicode="a" 
d="M817 0v135h-4q-34 -60 -95.5 -98.5t-122 -52t-126.5 -13.5q-175 0 -273 88t-98 217q0 147 89.5 225.5t293.5 88.5q232 12 336 16v78q0 110 -58.5 174t-201.5 64q-132 0 -193 -50t-77 -145h-158q47 326 430 326q204 0 311 -89.5t107 -254.5v-508q0 -68 14 -201h-174z
M817 358v127l-270 -12q-138 -6 -207.5 -49t-69.5 -139q0 -79 64 -131t170 -52q54 0 107.5 15.5t100.5 45.5t76 80.5t29 114.5z" />
    <glyph glyph-name="b" unicode="b" horiz-adv-x="1251" 
d="M981 508q0 98 -27 174t-73.5 122t-105 69.5t-126.5 23.5q-65 0 -124.5 -24.5t-107 -71t-76 -123.5t-28.5 -174q0 -167 92.5 -278t249.5 -111q104 0 179 54.5t111 142t36 196.5zM154 0v1540h159v-694h4q17 26 32.5 46t48.5 50t69 49.5t92 34t121 14.5q66 0 131 -18
t127.5 -59.5t109.5 -101.5t76 -150t29 -199q0 -238 -140 -389.5t-354 -151.5q-60 0 -112 14.5t-85.5 34.5t-64.5 51.5t-46.5 53.5t-33.5 53h-4v-178h-159z" />
    <glyph glyph-name="c" unicode="c" 
d="M1071 698l-164 -16q-11 32 -20.5 54.5t-32.5 58t-50.5 58t-73 39.5t-101.5 17q-155 0 -257 -110.5t-102 -292.5q0 -78 21 -147t62 -124.5t110 -87.5t158 -32q215 0 286 237l170 -20q-17 -56 -41 -105.5t-63 -97.5t-88 -82t-117.5 -55t-149.5 -21q-124 0 -224 44
t-164 118.5t-98 171t-34 203.5q0 124 43 228.5t115.5 173t167 106t197.5 37.5q176 0 298 -89.5t152 -265.5z" />
    <glyph glyph-name="d" unicode="d" horiz-adv-x="1251" 
d="M938 504q0 97 -28.5 174t-76 123.5t-107 71t-124.5 24.5q-68 0 -126.5 -23.5t-105 -69.5t-73.5 -122t-27 -174q0 -109 36 -196.5t111 -142t179 -54.5q157 0 249.5 111t92.5 278zM938 0v178h-4q-18 -31 -33.5 -53t-46.5 -53.5t-64.5 -51.5t-85.5 -34.5t-112 -14.5
q-214 0 -354 151.5t-140 389.5q0 109 29 199t76 150t109.5 101.5t127.5 59.5t131 18q65 0 121 -14.5t92 -34t69 -49.5t48.5 -50t32.5 -46h4v694h160v-1540h-160z" />
    <glyph glyph-name="e" unicode="e" 
d="M887 313l164 -24q-144 -318 -471 -318q-213 0 -347.5 143t-134.5 359q0 260 133 420t357 160q223 0 356 -138.5t133 -394.5v-45h-807q0 -171 91 -265.5t227 -94.5q216 0 299 198zM274 606h631q-18 143 -98 223t-215 80q-75 0 -135.5 -27.5t-98 -72.5t-58.5 -96.5
t-26 -106.5z" />
    <glyph glyph-name="f" unicode="f" horiz-adv-x="684" 
d="M254 0v893h-191v131h191v293q0 78 36.5 130t89.5 72.5t120 20.5q90 0 121 -6v-156q-27 6 -97 6q-110 0 -110 -102v-258h207v-131h-207v-893h-160z" />
    <glyph glyph-name="g" unicode="g" horiz-adv-x="1251" 
d="M938 850v174h160v-926q0 -528 -531 -528q-189 0 -305.5 89t-128.5 247l172 8q34 -201 266 -201q107 0 181 32.5t113.5 94t56 134t16.5 167.5v84h-4q-53 -117 -151.5 -171t-213.5 -54q-147 0 -255 70t-162 187.5t-54 266.5q0 116 39 216t105.5 168t156 106.5t189.5 38.5
q103 0 194.5 -53.5t151.5 -149.5h4zM938 541q0 71 -21 136t-61.5 117.5t-106 83.5t-147.5 31q-146 0 -239 -95.5t-93 -274.5q0 -182 80.5 -289t245.5 -107q63 0 122 24.5t109 71t80.5 125t30.5 177.5z" />
    <glyph glyph-name="h" unicode="h" 
d="M825 0v618q0 77 -18.5 133t-51.5 87t-71 45t-84 14q-119 0 -203 -87.5t-84 -240.5v-569h-159v1540h159v-690h4q102 190 326 190q41 0 83 -8.5t90 -32.5t84.5 -61.5t60.5 -102t24 -147.5v-688h-160z" />
    <glyph glyph-name="i" unicode="i" horiz-adv-x="454" 
d="M147 0v1024h160v-1024h-160zM106 1419q0 51 35 86t86 35t86 -35t35 -86t-35 -86t-86 -35t-86 35t-35 86z" />
    <glyph glyph-name="j" unicode="j" horiz-adv-x="454" 
d="M-51 -430v143h51q80 0 113.5 34.5t33.5 129.5v1147h160v-1157q0 -155 -68 -226t-239 -71h-51zM106 1419q0 51 35 86t86 35t86 -35t35 -86t-35 -86t-86 -35t-86 35t-35 86z" />
    <glyph glyph-name="k" unicode="k" horiz-adv-x="1024" 
d="M776 0l-463 539v-539h-159v1540h159v-969l459 453h219l-495 -467l503 -557h-223z" />
    <glyph glyph-name="l" unicode="l" horiz-adv-x="454" 
d="M147 0v1540h160v-1540h-160z" />
    <glyph glyph-name="m" unicode="m" horiz-adv-x="1708" 
d="M1395 0v657q0 128 -51 184t-170 56q-97 0 -168.5 -78.5t-71.5 -200.5v-618h-160v657q0 128 -50 184t-165 56q-101 0 -173.5 -78t-72.5 -201v-618h-159v1024h157v-164h4q23 38 46.5 65.5t59.5 56t87 43.5t115 15q53 0 98 -14t74 -34t52.5 -49t36 -52.5t21.5 -50.5
q49 98 120 149t194 51q165 0 250 -87.5t85 -252.5v-700h-159z" />
    <glyph glyph-name="n" unicode="n" 
d="M825 0v618q0 77 -18.5 133t-51.5 87t-71 45t-84 14q-119 0 -203 -87.5t-84 -240.5v-569h-159v1024h159v-174h4q102 190 326 190q41 0 83 -8.5t90 -32.5t84.5 -61.5t60.5 -102t24 -147.5v-688h-160z" />
    <glyph glyph-name="o" unicode="o" horiz-adv-x="1253" 
d="M1155 512q0 -104 -35 -200t-99.5 -172.5t-166.5 -122.5t-227 -46q-108 0 -197 30.5t-149.5 81.5t-102.5 121t-61 147t-19 161q0 82 21.5 160.5t66 147.5t106.5 121t148.5 82t186.5 30q108 0 197 -30.5t149.5 -81.5t102 -121t60.5 -147t19 -161zM270 512q0 -176 97 -286.5
t260 -110.5t259.5 110.5t96.5 286.5t-96.5 286.5t-259.5 110.5t-260 -110.5t-97 -286.5z" />
    <glyph glyph-name="p" unicode="p" horiz-adv-x="1251" 
d="M981 508q0 98 -27 174t-73.5 122t-105 69.5t-126.5 23.5q-65 0 -124.5 -24.5t-107 -71t-76 -123.5t-28.5 -174q0 -167 92.5 -278t249.5 -111q104 0 179 54.5t111 142t36 196.5zM154 -430v1454h159v-178h4q17 26 32.5 46t48.5 50t69 49.5t92 34t121 14.5q66 0 131 -18
t127.5 -59.5t109.5 -101.5t76 -150t29 -199q0 -238 -140 -389.5t-354 -151.5q-124 0 -211 56.5t-131 138.5h-4v-596h-159z" />
    <glyph glyph-name="q" unicode="q" horiz-adv-x="1251" 
d="M270 508q0 -109 36 -196.5t111 -142t179 -54.5q157 0 249.5 111t92.5 278q0 97 -28.5 174t-76 123.5t-107 71t-124.5 24.5q-68 0 -126.5 -23.5t-105 -69.5t-73.5 -122t-27 -174zM938 -430v596h-4q-44 -82 -131 -138.5t-211 -56.5q-214 0 -354 151.5t-140 389.5
q0 109 29 199t76 150t109.5 101.5t127.5 59.5t131 18q65 0 121 -14.5t92 -34t69 -49.5t48.5 -50t32.5 -46h4v178h160v-1454h-160z" />
    <glyph glyph-name="r" unicode="r" horiz-adv-x="684" 
d="M154 0v1024h155v-225h4q91 241 295 241h58v-168h-52q-301 0 -301 -385v-487h-159z" />
    <glyph glyph-name="s" unicode="s" horiz-adv-x="1024" 
d="M924 719h-160q-7 81 -67.5 135.5t-184.5 54.5q-110 0 -178 -43t-68 -116q0 -72 62 -111.5t207 -63.5q83 -14 143.5 -29t113.5 -38.5t85.5 -54t50.5 -73t18 -97.5q0 -59 -24 -112.5t-73 -99.5t-135.5 -73t-201.5 -27q-399 0 -434 330h160q2 -35 16.5 -66t44 -59t83 -44.5
t126.5 -16.5q124 0 201.5 41.5t76.5 117.5q-1 43 -25 69t-89.5 47.5t-194.5 43.5q-85 14 -146.5 34t-115.5 54t-81.5 87t-27.5 124q0 147 116 233.5t304 86.5q174 0 286 -92.5t112 -241.5z" />
    <glyph glyph-name="t" unicode="t" horiz-adv-x="684" 
d="M63 893v131h191v299h160v-299h207v-131h-207v-629q0 -70 22.5 -101.5t75.5 -31.5q60 0 106 6v-143q-86 -6 -161 -6q-108 0 -155.5 55t-47.5 203v647h-191z" />
    <glyph glyph-name="u" unicode="u" 
d="M825 0v162h-4q-102 -191 -325 -191q-49 0 -93.5 10t-91 36.5t-80.5 67.5t-55.5 109.5t-21.5 155.5v674h159v-631q0 -77 18.5 -133t51.5 -86.5t71.5 -44.5t84.5 -14q119 0 202.5 87t83.5 240v582h160v-1024h-160z" />
    <glyph glyph-name="v" unicode="v" horiz-adv-x="1024" 
d="M436 0l-420 1024h181l313 -795h4l322 795h172l-426 -1024h-146z" />
    <glyph glyph-name="w" unicode="w" horiz-adv-x="1593" 
d="M389 0l-356 1024h176l254 -782h4l254 782h151l261 -782h4l254 782h170l-353 -1024h-157l-252 782h-4l-250 -782h-156z" />
    <glyph glyph-name="x" unicode="x" horiz-adv-x="1024" 
d="M16 0l394 528l-369 496h213l270 -410l271 410h200l-377 -496l390 -528h-209l-283 422l-301 -422h-199z" />
    <glyph glyph-name="y" unicode="y" horiz-adv-x="1024" 
d="M236 -430l196 450l-416 1004h183l313 -848h4l315 848h177l-598 -1454h-174z" />
    <glyph glyph-name="z" unicode="z" horiz-adv-x="909" 
d="M57 0v139l596 742h-575v143h774v-139l-596 -742h596v-143h-795z" />
    <glyph glyph-name="braceleft" unicode="{" horiz-adv-x="684" 
d="M143 545v119q72 0 108 62t36 208v455q0 100 57 156.5t174 56.5h84v-119h-43q-61 0 -87 -30t-26 -89v-442q0 -248 -155 -316v-4q155 -68 155 -315v-443q0 -59 26 -88.5t87 -29.5h43v-119h-84q-117 0 -174 56.5t-57 156.5v454q0 146 -36 208.5t-108 62.5z" />
    <glyph glyph-name="bar" unicode="|" horiz-adv-x="454" 
d="M168 -29v1598h119v-1598h-119z" />
    <glyph glyph-name="braceright" unicode="}" horiz-adv-x="684" 
d="M82 -393v119h43q61 0 87 29.5t26 88.5v443q0 247 155 315v4q-155 68 -155 316v442q0 59 -26 89t-87 30h-43v119h84q117 0 174 -56.5t57 -156.5v-455q0 -146 36 -208t108 -62v-119q-72 0 -108 -62.5t-36 -208.5v-454q0 -100 -57 -156.5t-174 -56.5h-84z" />
    <glyph glyph-name="asciitilde" unicode="~" horiz-adv-x="1228" 
d="M215 383l-74 86q92 176 256 176q39 0 82 -10.5t70 -21t84 -35.5q8 -3 44 -18.5t48 -20.5t37 -14t41 -12t31 -3q38 0 73.5 23t56.5 49t50 71l73 -86q-92 -176 -256 -176q-38 0 -82 11.5t-67.5 21t-85.5 35.5q-9 4 -32 14t-33.5 14t-29.5 12t-30.5 11.5t-26.5 8t-26.5 6
t-22.5 1.5q-38 0 -73.5 -23t-56.5 -49t-50 -71z" />
    <glyph glyph-name="uni00A0" unicode="&#xa0;" horiz-adv-x="569" 
 />
    <glyph glyph-name="exclamdown" unicode="&#xa1;" horiz-adv-x="684" 
d="M262 -430v1190h160v-1190h-160zM227 1020q0 47 34 81t81 34t81 -34t34 -81t-34 -81t-81 -34t-81 34t-34 81z" />
    <glyph glyph-name="cent" unicode="&#xa2;" 
d="M535 121v780q-126 -25 -204.5 -130.5t-78.5 -264.5q0 -148 71.5 -255.5t211.5 -129.5zM535 -252v227q-109 11 -196.5 59t-143.5 121t-85.5 163.5t-29.5 189.5q0 115 36.5 213t99 165t144.5 109t175 52v141h94v-135q167 -8 281.5 -97.5t142.5 -257.5l-164 -16
q-10 29 -19.5 52t-31 56.5t-47.5 56t-68.5 41t-93.5 21.5v-790q194 12 260 233l170 -20q-21 -69 -53.5 -127t-83 -110.5t-125.5 -84t-168 -35.5v-227h-94z" />
    <glyph glyph-name="sterling" unicode="&#xa3;" 
d="M78 717v106h172q-96 142 -96 305q0 174 126 293t312 119q100 0 178 -24t126 -62.5t79.5 -92t44.5 -106t16 -110.5l-172 -12q-7 128 -76.5 196t-185.5 68q-121 0 -192.5 -73t-71.5 -198q0 -58 21 -124.5t77 -178.5h432v-106h-391q25 -91 25 -162q0 -62 -16.5 -119
t-49 -105.5t-64.5 -84.5t-77 -78l4 -4l11 4q10 4 12 4.5t12 4t14 4.5t14.5 3.5t17 3.5t18.5 3t22.5 2.5t24 1t28.5 0.5q58 0 186 -33q117 -31 166 -31q50 0 104 19t87 47l51 -154q-106 -68 -254 -68q-77 0 -199 35q-53 16 -124 28.5t-111 12.5q-76 0 -142 -24t-100 -56
l-65 142q84 37 147 107t93 145.5t30 146.5q0 115 -39 205h-225z" />
    <glyph glyph-name="currency" unicode="&#xa4;" 
d="M57 330l115 114q-111 133 -111 314q0 180 111 313l-115 115l84 84l115 -115q136 111 313 111q181 0 314 -111l114 115l84 -84l-114 -115q110 -135 110 -313q0 -179 -110 -314l114 -114l-84 -84l-114 114q-135 -110 -314 -110q-178 0 -313 110l-115 -114zM946 758
q0 160 -112 274.5t-265 114.5t-264.5 -114.5t-111.5 -274.5t111.5 -274.5t264.5 -114.5t265 114.5t112 274.5z" />
    <glyph glyph-name="yen" unicode="&#xa5;" 
d="M489 0v338h-301v119h301v155l-6 11h-295v118h234l-408 775h205l350 -746l351 746h204l-407 -775h233v-118h-295l-6 -11v-155h301v-119h-301v-338h-160z" />
    <glyph glyph-name="brokenbar" unicode="&#xa6;" horiz-adv-x="454" 
d="M168 -29v598h119v-598h-119zM168 971v598h119v-598h-119z" />
    <glyph glyph-name="section" unicode="&#xa7;" 
d="M973 1214h-172q-10 113 -67 162t-161 49q-62 0 -109 -21t-72.5 -54.5t-37.5 -69t-12 -70.5q0 -61 23 -105.5t62 -71t89.5 -45.5t106 -34t111 -31.5t106 -43t89.5 -63t62 -97.5t23 -141q0 -127 -79 -225.5t-179 -112.5v-4q113 -31 170 -113.5t57 -188.5q0 -177 -115 -285
t-301 -108q-386 0 -411 359h172q1 -70 34.5 -120t83 -72.5t107.5 -22.5q125 0 191.5 62t66.5 161q0 56 -19 98.5t-52 67t-77 44t-93.5 30.5t-101.5 26.5t-101.5 31t-93.5 44.5t-77 67t-52 98.5t-19 139.5q0 124 68.5 213.5t187.5 120.5v4q-104 30 -157.5 112.5t-53.5 204.5
q0 149 111.5 254t296.5 105q177 0 283 -95.5t112 -259.5zM842 569q0 102 -75 168t-206 66q-126 0 -195 -69.5t-69 -170.5q0 -99 68.5 -170t203.5 -71q123 0 198 68.5t75 178.5z" />
    <glyph glyph-name="dieresis" unicode="&#xa8;" horiz-adv-x="454" 
d="M324 1352q0 47 33.5 80.5t80.5 33.5t81 -33.5t34 -80.5t-34 -81t-81 -34t-80.5 34t-33.5 81zM-98 1352q0 47 33.5 80.5t80.5 33.5t81 -33.5t34 -80.5t-34 -81t-81 -34t-80.5 34t-33.5 81z" />
    <glyph glyph-name="copyright" unicode="&#xa9;" horiz-adv-x="1638" 
d="M1120 612h125q-32 -154 -140.5 -247t-258.5 -93q-145 0 -256 66.5t-169.5 180t-58.5 255.5q0 221 128.5 360.5t349.5 139.5q160 0 272 -88.5t133 -245.5h-125q-21 98 -95.5 162.5t-182.5 64.5q-173 0 -267 -107.5t-94 -283.5q0 -182 94.5 -289.5t270.5 -107.5
q107 0 181.5 66t92.5 167zM20 770q0 162 63.5 310t170.5 255t255 170.5t310 63.5t310 -63.5t255 -170.5t170.5 -255t63.5 -310t-63.5 -310t-170.5 -255t-255 -170.5t-310 -63.5t-310 63.5t-255 170.5t-170.5 255t-63.5 310zM1499 770q0 146 -52.5 275t-143 220.5t-216.5 144
t-268 52.5t-268 -52.5t-216.5 -144t-143 -220.5t-52.5 -275t52.5 -275t143 -220.5t216.5 -144t268 -52.5t268 52.5t216.5 144t143 220.5t52.5 275z" />
    <glyph glyph-name="ordfeminine" unicode="&#xaa;" horiz-adv-x="739" 
d="M653 1358v-316q0 -42 13 -122h-125v81h-4q-57 -98 -232 -98q-96 0 -163.5 51.5t-67.5 135.5q0 89 58.5 137.5t189.5 52.5l213 8v53q0 65 -38 105.5t-126 40.5q-155 0 -176 -117h-119q33 199 297 199q280 0 280 -211zM535 1141v78l-201 -9q-59 -2 -100 -27t-41 -81
t41.5 -86.5t107.5 -30.5q75 0 134 41t59 115z" />
    <glyph glyph-name="guillemotleft" unicode="&#xab;" 
d="M782 164l-219 377l225 368h144l-230 -368l224 -377h-144zM426 164l-219 377l225 368h143l-229 -368l223 -377h-143z" />
    <glyph glyph-name="logicalnot" unicode="&#xac;" horiz-adv-x="1228" 
d="M1014 221v441h-918v118h1037v-559h-119z" />
    <glyph glyph-name="uni00AD" unicode="&#xad;" horiz-adv-x="684" 
d="M90 459v155h504v-155h-504z" />
    <glyph glyph-name="registered" unicode="&#xae;" horiz-adv-x="1638" 
d="M1079 301l-258 404h-194v-404h-119v944h371q165 0 245 -66t80 -200q0 -122 -71.5 -190.5t-176.5 -81.5l267 -406h-144zM627 811h209q130 0 189.5 32.5t59.5 127.5q0 98 -52.5 133t-158.5 35h-247v-328zM20 770q0 162 63.5 310t170.5 255t255 170.5t310 63.5t310 -63.5
t255 -170.5t170.5 -255t63.5 -310t-63.5 -310t-170.5 -255t-255 -170.5t-310 -63.5t-310 63.5t-255 170.5t-170.5 255t-63.5 310zM1499 770q0 146 -52.5 275t-143 220.5t-216.5 144t-268 52.5t-268 -52.5t-216.5 -144t-143 -220.5t-52.5 -275t52.5 -275t143 -220.5
t216.5 -144t268 -52.5t268 52.5t216.5 144t143 220.5t52.5 275z" />
    <glyph glyph-name="macron" unicode="&#xaf;" horiz-adv-x="454" 
d="M-53 1296v119h561v-119h-561z" />
    <glyph glyph-name="degree" unicode="&#xb0;" horiz-adv-x="819" 
d="M115 1245q0 123 86 209t209 86t209 -86t86 -209t-86 -209t-209 -86t-209 86t-86 209zM610 1245q0 78 -61 139.5t-139 61.5t-139.5 -61.5t-61.5 -139.5t61.5 -139.5t139.5 -61.5t139 61.5t61 139.5z" />
    <glyph glyph-name="plusminus" unicode="&#xb1;" horiz-adv-x="1228" 
d="M555 676v360h119v-360h459v-119h-459v-358h-119v358h-459v119h459zM96 0v119h1037v-119h-1037z" />
    <glyph glyph-name="twosuperior" unicode="&#xb2;" horiz-adv-x="739" 
d="M68 614v119l313 297q77 74 118.5 134t41.5 124q0 63 -42 98t-124 35q-178 0 -182 -174h-119q1 79 28 137.5t71.5 91.5t96.5 48.5t111 15.5q143 0 217 -66t74 -165q0 -91 -40.5 -168t-127.5 -158l-271 -250h439v-119h-604z" />
    <glyph glyph-name="threesuperior" unicode="&#xb3;" horiz-adv-x="739" 
d="M205 1059v102l280 273h-391v106h541v-106l-270 -260v-5q36 9 59 9q58 0 113.5 -28.5t95 -91t39.5 -145.5q0 -128 -82 -213.5t-240 -85.5q-80 0 -137.5 17t-92 50.5t-52.5 75t-25 97.5l119 8q14 -141 186 -141q89 0 141 48.5t52 131.5q0 86 -55 134t-140 48
q-90 0 -131 -28z" />
    <glyph glyph-name="acute" unicode="&#xb4;" horiz-adv-x="454" 
d="M35 1225l180 291h221l-266 -291h-135z" />
    <glyph glyph-name="mu" unicode="&#xb5;" 
d="M825 0v162h-4q-102 -191 -325 -191q-113 0 -183 82v-483h-159v1454h159v-631q0 -77 18.5 -133t51.5 -86.5t71.5 -44.5t84.5 -14q119 0 202.5 87t83.5 240v582h160v-1024h-160z" />
    <glyph glyph-name="paragraph" unicode="&#xb6;" horiz-adv-x="1228" 
d="M897 -430v1864h-205v-1864h-147v1188q-188 0 -308 106.5t-120 278.5q0 192 121 294.5t327 102.5h479v-1970h-147z" />
    <glyph glyph-name="periodcentered" unicode="&#xb7;" horiz-adv-x="569" 
d="M164 670q0 51 35 86t86 35t86 -35t35 -86t-35 -86t-86 -35t-86 35t-35 86z" />
    <glyph glyph-name="cedilla" unicode="&#xb8;" horiz-adv-x="454" 
d="M113 -221l-35 43l129 178h98l-94 -127h4q27 10 78 10q65 0 109 -44t44 -105q0 -95 -74.5 -144t-174.5 -49q-23 0 -46 3t-46 9.5t-36 10.5t-35.5 12.5t-25.5 9.5l33 88q64 -39 133 -39q50 0 81.5 19t31.5 61q0 86 -90 86q-47 0 -84 -22z" />
    <glyph glyph-name="onesuperior" unicode="&#xb9;" horiz-adv-x="739" 
d="M348 614v746q-82 -62 -201 -100v114q63 21 140.5 74t115.5 92h76v-926h-131z" />
    <glyph glyph-name="ordmasculine" unicode="&#xba;" horiz-adv-x="815" 
d="M408 1569q88 0 155.5 -27.5t107.5 -75t60.5 -105.5t20.5 -124q0 -88 -38.5 -163t-118.5 -123t-187 -48q-88 0 -155.5 27.5t-108 75t-61 106t-20.5 125.5q0 136 93 234t252 98zM408 1475q-102 0 -164 -67t-62 -171q0 -105 62 -172.5t164 -67.5t163.5 67t61.5 173
q0 104 -62 171t-163 67z" />
    <glyph glyph-name="guillemotright" unicode="&#xbb;" 
d="M207 164l229 368l-223 377h143l219 -377l-225 -368h-143zM563 164l230 368l-224 377h144l219 -377l-225 -368h-144z" />
    <glyph glyph-name="onequarter" unicode="&#xbc;" horiz-adv-x="1708" 
d="M1386 0v223h-423v109l428 594h127v-584h108v-119h-108v-223h-132zM1386 342v403h-4l-286 -403h290zM272 -25l947 1565h137l-946 -1565h-138zM283 614v746q-82 -62 -201 -100v114q63 21 140.5 74t115.5 92h76v-926h-131z" />
    <glyph glyph-name="onehalf" unicode="&#xbd;" horiz-adv-x="1708" 
d="M190 -25l947 1565h137l-946 -1565h-138zM283 614v746q-82 -62 -201 -100v114q63 21 140.5 74t115.5 92h76v-926h-131zM1022 0v119l313 297q77 74 118.5 134t41.5 124q0 63 -42 98t-124 35q-178 0 -182 -174h-119q1 79 28 137.5t71.5 91.5t96.5 48.5t111 15.5
q143 0 217 -66.5t74 -165.5q0 -91 -40 -167.5t-128 -157.5l-270 -250h438v-119h-604z" />
    <glyph glyph-name="threequarters" unicode="&#xbe;" horiz-adv-x="1708" 
d="M1386 342v403h-4l-286 -403h290zM1386 0v223h-423v109l428 594h127v-584h108v-119h-108v-223h-132zM375 -25l946 1565h137l-946 -1565h-137zM244 1059v102l280 273h-391v106h541v-106l-271 -260v-5q36 9 60 9q58 0 113.5 -28.5t95 -91t39.5 -145.5q0 -128 -82 -213.5
t-240 -85.5q-80 0 -137.5 17t-92 50.5t-52.5 75t-25 97.5l119 8q14 -141 186 -141q89 0 141 48.5t52 131.5q0 86 -55 134t-140 48q-90 0 -131 -28z" />
    <glyph glyph-name="questiondown" unicode="&#xbf;" 
d="M723 760v-105q0 -139 -37 -232t-149 -179q-75 -57 -115.5 -100t-63 -98.5t-22.5 -127.5q0 -102 62 -167.5t171 -65.5q123 0 184.5 76.5t61.5 209.5h160q0 -57 -9.5 -110.5t-37 -113.5t-71 -104t-119 -73t-173.5 -29q-84 0 -155.5 24t-127 70t-87 121t-31.5 170
q0 71 16 126.5t53.5 105t75.5 85t107 89.5q147 117 147 295v133h160zM528 1020q0 47 34 81t81 34t81 -34t34 -81t-34 -81t-81 -34t-81 34t-34 81z" />
    <glyph glyph-name="Agrave" unicode="&#xc0;" horiz-adv-x="1368" 
d="M946 590l-260 733h-4l-260 -733h524zM16 0l580 1540h176l580 -1540h-195l-153 434h-639l-154 -434h-195zM649 1618l-266 291h221l180 -291h-135z" />
    <glyph glyph-name="Aacute" unicode="&#xc1;" horiz-adv-x="1368" 
d="M946 590l-260 733h-4l-260 -733h524zM16 0l580 1540h176l580 -1540h-195l-153 434h-639l-154 -434h-195zM563 1618l180 291h222l-267 -291h-135z" />
    <glyph glyph-name="Acircumflex" unicode="&#xc2;" horiz-adv-x="1368" 
d="M946 590l-260 733h-4l-260 -733h524zM16 0l580 1540h176l580 -1540h-195l-153 434h-639l-154 -434h-195zM817 1618l-135 190l-135 -190h-162l203 291h188l207 -291h-166z" />
    <glyph glyph-name="Atilde" unicode="&#xc3;" horiz-adv-x="1368" 
d="M946 590l-260 733h-4l-260 -733h524zM16 0l580 1540h176l580 -1540h-195l-153 434h-639l-154 -434h-195zM440 1634h-104q13 106 65.5 166t147.5 60q63 0 158 -35q12 -5 34 -14t35.5 -14.5t30.5 -10t31 -4.5q44 0 66 29.5t24 64.5h104q-13 -106 -65.5 -165.5t-147.5 -59.5
q-62 0 -157 35q-12 5 -34 14t-35.5 14.5t-31 10t-31.5 4.5q-44 0 -66 -30t-24 -65z" />
    <glyph glyph-name="Adieresis" unicode="&#xc4;" horiz-adv-x="1368" 
d="M946 590l-260 733h-4l-260 -733h524zM16 0l580 1540h176l580 -1540h-195l-153 434h-639l-154 -434h-195zM780 1745q0 47 34 81t81 34t81 -34t34 -81t-34 -81t-81 -34t-81 34t-34 81zM358 1745q0 47 34 81t81 34t81 -34t34 -81t-34 -81t-81 -34t-81 34t-34 81z" />
    <glyph glyph-name="Aring" unicode="&#xc5;" horiz-adv-x="1368" 
d="M946 590l-260 733h-4l-260 -733h524zM16 0l580 1540h176l580 -1540h-195l-153 434h-639l-154 -434h-195zM475 1794q0 86 61.5 147.5t147.5 61.5t147.5 -61.5t61.5 -147.5t-61.5 -147.5t-147.5 -61.5t-147.5 61.5t-61.5 147.5zM811 1794q0 52 -37.5 89.5t-89.5 37.5
t-89.5 -37.5t-37.5 -89.5t37.5 -89.5t89.5 -37.5t89.5 37.5t37.5 89.5z" />
    <glyph glyph-name="AE" unicode="&#xc6;" horiz-adv-x="1933" 
d="M977 0v381h-574l-206 -381h-199l874 1540h936v-156h-659v-516h639v-155h-639v-557h659v-156h-831zM977 537v897h-4l-486 -897h490z" />
    <glyph glyph-name="Ccedilla" unicode="&#xc7;" horiz-adv-x="1705" 
d="M1595 1053l-174 -13q-56 195 -189.5 284t-320.5 89q-124 0 -226 -37t-170 -99.5t-114.5 -146t-67 -174t-20.5 -186.5t18.5 -185t63 -173.5t111.5 -147t171 -100t234 -37.5q211 0 340 112t181 314l176 -21q-20 -82 -51 -153.5t-84.5 -144.5t-123 -126.5t-172 -90.5
t-225.5 -44l-73 -100h4q27 10 78 10q65 0 109 -44t44 -105q0 -95 -74.5 -144t-175.5 -49q-23 0 -46 3t-45.5 9.5t-36 10.5t-35 12.5t-25.5 9.5l33 88q64 -39 133 -39q112 0 112 80q0 86 -90 86q-47 0 -84 -22l-35 43l109 151q-213 8 -376.5 106t-256 277t-92.5 414
q0 171 60 320.5t164 254t249 164.5t309 60q141 0 255.5 -34t186 -85.5t124.5 -123.5t78.5 -136.5t39.5 -136.5z" />
    <glyph glyph-name="Egrave" unicode="&#xc8;" 
d="M174 0v1540h868v-156h-696v-516h676v-155h-676v-557h696v-156h-868zM606 1618l-266 291h221l180 -291h-135z" />
    <glyph glyph-name="Eacute" unicode="&#xc9;" 
d="M174 0v1540h868v-156h-696v-516h676v-155h-676v-557h696v-156h-868zM489 1618l181 291h221l-266 -291h-136z" />
    <glyph glyph-name="Ecircumflex" unicode="&#xca;" 
d="M174 0v1540h868v-156h-696v-516h676v-155h-676v-557h696v-156h-868zM702 1618l-135 190l-135 -190h-162l203 291h189l206 -291h-166z" />
    <glyph glyph-name="Edieresis" unicode="&#xcb;" 
d="M174 0v1540h868v-156h-696v-516h676v-155h-676v-557h696v-156h-868zM666 1745q0 47 33.5 81t80.5 34t81 -34t34 -81t-34 -81t-81 -34t-80.5 34t-33.5 81zM244 1745q0 47 33.5 81t80.5 34t81 -34t34 -81t-34 -81t-81 -34t-80.5 34t-33.5 81z" />
    <glyph glyph-name="Igrave" unicode="&#xcc;" horiz-adv-x="569" 
d="M199 0v1540h172v-1540h-172zM342 1618l-266 291h221l180 -291h-135z" />
    <glyph glyph-name="Iacute" unicode="&#xcd;" horiz-adv-x="569" 
d="M199 0v1540h172v-1540h-172zM143 1618l181 291h221l-266 -291h-136z" />
    <glyph glyph-name="Icircumflex" unicode="&#xce;" horiz-adv-x="569" 
d="M199 0v1540h172v-1540h-172zM418 1618l-135 190l-136 -190h-161l202 291h189l207 -291h-166z" />
    <glyph glyph-name="Idieresis" unicode="&#xcf;" horiz-adv-x="569" 
d="M199 0v1540h172v-1540h-172zM330 1745q0 47 33.5 81t80.5 34t81 -34t34 -81t-34 -81t-81 -34t-80.5 34t-33.5 81zM-92 1745q0 47 34 81t81 34t80.5 -34t33.5 -81t-33.5 -81t-80.5 -34t-81 34t-34 81z" />
    <glyph glyph-name="Eth" unicode="&#xd0;" horiz-adv-x="1593" 
d="M190 0v743h-120v144h120v653h478q177 0 317 -45t228 -119t146 -175t81.5 -205t23.5 -218q0 -117 -28 -228.5t-88 -211.5t-144.5 -175t-206 -119t-264.5 -44h-543zM362 156h338q114 0 210.5 34.5t164 94t114.5 139.5t69 170t22 186t-20.5 181.5t-67.5 164t-117 135
t-177 90t-241 33.5h-295v-497h476v-144h-476v-587z" />
    <glyph glyph-name="Ntilde" unicode="&#xd1;" horiz-adv-x="1593" 
d="M182 0v1540h187l866 -1270h4v1270h172v-1540h-186l-867 1270h-4v-1270h-172zM553 1634h-104q13 106 65.5 166t147.5 60q62 0 157 -35q12 -5 34 -14t35.5 -14.5t30.5 -10t31 -4.5q44 0 66 29.5t24 64.5h105q-13 -106 -65.5 -165.5t-147.5 -59.5q-63 0 -158 35
q-12 5 -34 14t-35.5 14.5t-30.5 10t-31 4.5q-44 0 -66 -30t-24 -65z" />
    <glyph glyph-name="Ograve" unicode="&#xd2;" horiz-adv-x="1822" 
d="M1509 770q0 96 -20.5 186.5t-67 174t-114.5 146t-170 99.5t-226 37t-226 -37t-170 -99.5t-114.5 -146t-67 -174t-20.5 -186.5q0 -66 14.5 -136t44 -143t79 -138t113 -115.5t153.5 -80.5t194 -30t194 30t153.5 80.5t113 115.5t79 138t44 143t14.5 136zM129 770
q0 171 60 320.5t164 254t249 164.5t309 60q226 0 403 -95.5t278.5 -278.5t101.5 -425q0 -171 -60 -320.5t-164.5 -254t-249.5 -164.5t-309 -60q-169 0 -313 56t-248 158t-162.5 252.5t-58.5 332.5zM897 1618l-266 291h221l180 -291h-135z" />
    <glyph glyph-name="Oacute" unicode="&#xd3;" horiz-adv-x="1822" 
d="M1509 770q0 96 -20.5 186.5t-67 174t-114.5 146t-170 99.5t-226 37t-226 -37t-170 -99.5t-114.5 -146t-67 -174t-20.5 -186.5q0 -66 14.5 -136t44 -143t79 -138t113 -115.5t153.5 -80.5t194 -30t194 30t153.5 80.5t113 115.5t79 138t44 143t14.5 136zM129 770
q0 171 60 320.5t164 254t249 164.5t309 60q226 0 403 -95.5t278.5 -278.5t101.5 -425q0 -171 -60 -320.5t-164.5 -254t-249.5 -164.5t-309 -60q-169 0 -313 56t-248 158t-162.5 252.5t-58.5 332.5zM791 1618l180 291h221l-266 -291h-135z" />
    <glyph glyph-name="Ocircumflex" unicode="&#xd4;" horiz-adv-x="1822" 
d="M1509 770q0 96 -20.5 186.5t-67 174t-114.5 146t-170 99.5t-226 37t-226 -37t-170 -99.5t-114.5 -146t-67 -174t-20.5 -186.5q0 -66 14.5 -136t44 -143t79 -138t113 -115.5t153.5 -80.5t194 -30t194 30t153.5 80.5t113 115.5t79 138t44 143t14.5 136zM129 770
q0 171 60 320.5t164 254t249 164.5t309 60q226 0 403 -95.5t278.5 -278.5t101.5 -425q0 -171 -60 -320.5t-164.5 -254t-249.5 -164.5t-309 -60q-169 0 -313 56t-248 158t-162.5 252.5t-58.5 332.5zM1044 1618l-135 190l-135 -190h-162l203 291h189l206 -291h-166z" />
    <glyph glyph-name="Otilde" unicode="&#xd5;" horiz-adv-x="1822" 
d="M1509 770q0 96 -20.5 186.5t-67 174t-114.5 146t-170 99.5t-226 37t-226 -37t-170 -99.5t-114.5 -146t-67 -174t-20.5 -186.5q0 -66 14.5 -136t44 -143t79 -138t113 -115.5t153.5 -80.5t194 -30t194 30t153.5 80.5t113 115.5t79 138t44 143t14.5 136zM129 770
q0 171 60 320.5t164 254t249 164.5t309 60q226 0 403 -95.5t278.5 -278.5t101.5 -425q0 -171 -60 -320.5t-164.5 -254t-249.5 -164.5t-309 -60q-169 0 -313 56t-248 158t-162.5 252.5t-58.5 332.5zM668 1634h-105q13 106 65.5 166t147.5 60q63 0 158 -35q12 -5 34 -14
t35.5 -14.5t30.5 -10t31 -4.5q44 0 66 29.5t24 64.5h105q-13 -106 -65.5 -165.5t-147.5 -59.5q-63 0 -158 35q-12 5 -34 14t-35.5 14.5t-30.5 10t-31 4.5q-44 0 -66 -30t-24 -65z" />
    <glyph glyph-name="Odieresis" unicode="&#xd6;" horiz-adv-x="1822" 
d="M1509 770q0 96 -20.5 186.5t-67 174t-114.5 146t-170 99.5t-226 37t-226 -37t-170 -99.5t-114.5 -146t-67 -174t-20.5 -186.5q0 -66 14.5 -136t44 -143t79 -138t113 -115.5t153.5 -80.5t194 -30t194 30t153.5 80.5t113 115.5t79 138t44 143t14.5 136zM129 770
q0 171 60 320.5t164 254t249 164.5t309 60q226 0 403 -95.5t278.5 -278.5t101.5 -425q0 -171 -60 -320.5t-164.5 -254t-249.5 -164.5t-309 -60q-169 0 -313 56t-248 158t-162.5 252.5t-58.5 332.5zM1008 1745q0 47 33.5 81t80.5 34t81 -34t34 -81t-34 -81t-81 -34t-80.5 34
t-33.5 81zM586 1745q0 47 33.5 81t80.5 34t81 -34t34 -81t-34 -81t-81 -34t-80.5 34t-33.5 81z" />
    <glyph glyph-name="multiply" unicode="&#xd7;" horiz-adv-x="1228" 
d="M530 518l-380 381l83 84l379 -383l383 383l84 -84l-383 -381l383 -381l-84 -84l-383 383l-379 -383l-83 84z" />
    <glyph glyph-name="Oslash" unicode="&#xd8;" horiz-adv-x="1822" 
d="M442 367l885 888q-158 158 -416 158q-124 0 -226 -37t-170 -99.5t-114.5 -146t-67 -174t-20.5 -186.5q0 -100 32.5 -207t96.5 -196zM1391 1182l-887 -889q159 -166 407 -166q104 0 194 30t153.5 80.5t113 115.5t79 138t44 143t14.5 136q0 247 -118 412zM125 49l184 184
q-180 212 -180 537q0 171 60 320.5t164 254t249 164.5t309 60q329 0 537 -193l182 185l68 -70l-182 -184q178 -212 178 -537q0 -171 -60 -320.5t-164.5 -254t-249.5 -164.5t-309 -60q-328 0 -536 193l-182 -184z" />
    <glyph glyph-name="Ugrave" unicode="&#xd9;" horiz-adv-x="1478" 
d="M174 510v1030h172v-1003q0 -205 105 -307.5t288 -102.5q83 0 152.5 26t124.5 78t86 139t31 201v969h172v-971q0 -147 -44 -262.5t-122 -188t-179.5 -110t-220.5 -37.5q-274 0 -419.5 146.5t-145.5 392.5zM735 1618l-266 291h221l180 -291h-135z" />
    <glyph glyph-name="Uacute" unicode="&#xda;" horiz-adv-x="1478" 
d="M174 510v1030h172v-1003q0 -205 105 -307.5t288 -102.5q83 0 152.5 26t124.5 78t86 139t31 201v969h172v-971q0 -147 -44 -262.5t-122 -188t-179.5 -110t-220.5 -37.5q-274 0 -419.5 146.5t-145.5 392.5zM618 1618l181 291h221l-266 -291h-136z" />
    <glyph glyph-name="Ucircumflex" unicode="&#xdb;" horiz-adv-x="1478" 
d="M174 510v1030h172v-1003q0 -205 105 -307.5t288 -102.5q83 0 152.5 26t124.5 78t86 139t31 201v969h172v-971q0 -147 -44 -262.5t-122 -188t-179.5 -110t-220.5 -37.5q-274 0 -419.5 146.5t-145.5 392.5zM872 1618l-135 190l-135 -190h-162l203 291h188l207 -291h-166z
" />
    <glyph glyph-name="Udieresis" unicode="&#xdc;" horiz-adv-x="1478" 
d="M174 510v1030h172v-1003q0 -205 105 -307.5t288 -102.5q83 0 152.5 26t124.5 78t86 139t31 201v969h172v-971q0 -147 -44 -262.5t-122 -188t-179.5 -110t-220.5 -37.5q-274 0 -419.5 146.5t-145.5 392.5zM836 1745q0 47 33.5 81t80.5 34t81 -34t34 -81t-34 -81t-81 -34
t-80.5 34t-33.5 81zM414 1745q0 47 33.5 81t80.5 34t81 -34t34 -81t-34 -81t-81 -34t-80.5 34t-33.5 81z" />
    <glyph glyph-name="Yacute" unicode="&#xdd;" horiz-adv-x="1253" 
d="M545 0v629l-531 911h211l406 -758l397 758h211l-522 -911v-629h-172zM496 1618l180 291h221l-266 -291h-135z" />
    <glyph glyph-name="Thorn" unicode="&#xde;" horiz-adv-x="1251" 
d="M174 0v1540h172v-278h318q236 0 369.5 -126.5t133.5 -349.5q0 -111 -38.5 -201.5t-104 -148.5t-150.5 -89.5t-180 -31.5h-348v-315h-172zM346 471h266q77 0 141.5 17.5t117.5 53.5t82.5 99t29.5 147q0 161 -95.5 239.5t-260.5 78.5h-281v-635z" />
    <glyph glyph-name="germandbls" unicode="&#xdf;" 
d="M442 4v143q7 -1 28 -5.5t42.5 -7.5t44.5 -3q50 0 99.5 20t95 60t74 111.5t28.5 162.5q0 145 -88.5 228.5t-230.5 83.5h-56v143h70q109 0 176.5 63.5t67.5 178.5q0 111 -64 177t-186 66q-107 0 -168.5 -74.5t-61.5 -205.5v-1145h-159v1165q0 84 24.5 156t72 128t126.5 88
t180 32q54 0 108 -13t106 -42t92 -70.5t64.5 -103.5t24.5 -136q0 -77 -20.5 -140t-71 -114t-127.5 -76v-4q293 -73 293 -399q0 -127 -54.5 -236.5t-159 -178t-237.5 -68.5q-59 0 -133 16z" />
    <glyph glyph-name="agrave" unicode="&#xe0;" 
d="M817 0v135h-4q-34 -60 -95.5 -98.5t-122 -52t-126.5 -13.5q-175 0 -273 88t-98 217q0 147 89.5 225.5t293.5 88.5q232 12 336 16v78q0 110 -58.5 174t-201.5 64q-132 0 -193 -50t-77 -145h-158q47 326 430 326q204 0 311 -89.5t107 -254.5v-508q0 -68 14 -201h-174z
M817 358v127l-270 -12q-138 -6 -207.5 -49t-69.5 -139q0 -79 64 -131t170 -52q54 0 107.5 15.5t100.5 45.5t76 80.5t29 114.5zM565 1225l-266 291h221l180 -291h-135z" />
    <glyph glyph-name="aacute" unicode="&#xe1;" 
d="M817 0v135h-4q-34 -60 -95.5 -98.5t-122 -52t-126.5 -13.5q-175 0 -273 88t-98 217q0 147 89.5 225.5t293.5 88.5q232 12 336 16v78q0 110 -58.5 174t-201.5 64q-132 0 -193 -50t-77 -145h-158q47 326 430 326q204 0 311 -89.5t107 -254.5v-508q0 -68 14 -201h-174z
M817 358v127l-270 -12q-138 -6 -207.5 -49t-69.5 -139q0 -79 64 -131t170 -52q54 0 107.5 15.5t100.5 45.5t76 80.5t29 114.5zM438 1225l180 291h222l-267 -291h-135z" />
    <glyph glyph-name="acircumflex" unicode="&#xe2;" 
d="M817 0v135h-4q-34 -60 -95.5 -98.5t-122 -52t-126.5 -13.5q-175 0 -273 88t-98 217q0 147 89.5 225.5t293.5 88.5q232 12 336 16v78q0 110 -58.5 174t-201.5 64q-132 0 -193 -50t-77 -145h-158q47 326 430 326q204 0 311 -89.5t107 -254.5v-508q0 -68 14 -201h-174z
M817 358v127l-270 -12q-138 -6 -207.5 -49t-69.5 -139q0 -79 64 -131t170 -52q54 0 107.5 15.5t100.5 45.5t76 80.5t29 114.5zM702 1225l-135 190l-135 -190h-162l203 291h189l206 -291h-166z" />
    <glyph glyph-name="atilde" unicode="&#xe3;" 
d="M817 0v135h-4q-34 -60 -95.5 -98.5t-122 -52t-126.5 -13.5q-175 0 -273 88t-98 217q0 147 89.5 225.5t293.5 88.5q232 12 336 16v78q0 110 -58.5 174t-201.5 64q-132 0 -193 -50t-77 -145h-158q47 326 430 326q204 0 311 -89.5t107 -254.5v-508q0 -68 14 -201h-174z
M817 358v127l-270 -12q-138 -6 -207.5 -49t-69.5 -139q0 -79 64 -131t170 -52q54 0 107.5 15.5t100.5 45.5t76 80.5t29 114.5zM326 1241h-105q13 106 65.5 165.5t147.5 59.5q65 0 158 -34q12 -5 34 -14t35.5 -14.5t30.5 -10t31 -4.5q44 0 66 29.5t24 64.5h105
q-13 -106 -65.5 -166t-147.5 -60q-63 0 -158 35q-12 5 -34 14t-35.5 14.5t-30.5 10t-31 4.5q-44 0 -66 -29.5t-24 -64.5z" />
    <glyph glyph-name="adieresis" unicode="&#xe4;" 
d="M817 0v135h-4q-34 -60 -95.5 -98.5t-122 -52t-126.5 -13.5q-175 0 -273 88t-98 217q0 147 89.5 225.5t293.5 88.5q232 12 336 16v78q0 110 -58.5 174t-201.5 64q-132 0 -193 -50t-77 -145h-158q47 326 430 326q204 0 311 -89.5t107 -254.5v-508q0 -68 14 -201h-174z
M817 358v127l-270 -12q-138 -6 -207.5 -49t-69.5 -139q0 -79 64 -131t170 -52q54 0 107.5 15.5t100.5 45.5t76 80.5t29 114.5zM666 1352q0 47 33.5 80.5t80.5 33.5t81 -33.5t34 -80.5t-34 -81t-81 -34t-80.5 34t-33.5 81zM244 1352q0 47 33.5 80.5t80.5 33.5t81 -33.5
t34 -80.5t-34 -81t-81 -34t-80.5 34t-33.5 81z" />
    <glyph glyph-name="aring" unicode="&#xe5;" 
d="M817 0v135h-4q-34 -60 -95.5 -98.5t-122 -52t-126.5 -13.5q-175 0 -273 88t-98 217q0 147 89.5 225.5t293.5 88.5q232 12 336 16v78q0 110 -58.5 174t-201.5 64q-132 0 -193 -50t-77 -145h-158q47 326 430 326q204 0 311 -89.5t107 -254.5v-508q0 -68 14 -201h-174z
M817 358v127l-270 -12q-138 -6 -207.5 -49t-69.5 -139q0 -79 64 -131t170 -52q54 0 107.5 15.5t100.5 45.5t76 80.5t29 114.5zM360 1401q0 86 61.5 147.5t147.5 61.5t147.5 -61.5t61.5 -147.5t-61.5 -147.5t-147.5 -61.5t-147.5 61.5t-61.5 147.5zM696 1401q0 53 -37 90
t-90 37t-90 -37t-37 -90t37 -90t90 -37t90 37t37 90z" />
    <glyph glyph-name="ae" unicode="&#xe6;" horiz-adv-x="1820" 
d="M793 606v35q0 127 -58.5 197.5t-195.5 70.5q-110 0 -169.5 -45.5t-78.5 -138.5l-160 4q11 66 39.5 122t77 102.5t124.5 73t173 26.5q266 0 342 -199q23 38 54.5 70.5t77.5 63t112.5 48t144.5 17.5q91 0 168.5 -30.5t141 -92.5t100 -168.5t36.5 -245.5v-41h-770
q0 -55 7.5 -102.5t28 -96.5t53.5 -83.5t87.5 -56t126.5 -21.5q126 0 193.5 59t99.5 170l166 -18q-23 -71 -61.5 -132.5t-93.5 -112.5t-131 -80.5t-164 -29.5q-83 0 -145.5 14t-110 44t-81.5 66.5t-71 92.5q-124 -217 -397 -217q-101 0 -175 27.5t-112.5 73.5t-56 94.5
t-17.5 101.5q0 140 89.5 226.5t258.5 99.5q113 8 347 12zM793 436v39q-157 0 -308 -14q-101 -9 -158 -53.5t-57 -124.5q0 -83 56 -125.5t155 -42.5q312 0 312 321zM954 606h596q-10 141 -87 222t-199 81q-73 0 -130 -26t-92.5 -72t-56 -95.5t-31.5 -109.5z" />
    <glyph glyph-name="ccedilla" unicode="&#xe7;" 
d="M1071 698l-164 -16q-11 32 -20.5 54.5t-32.5 58t-50.5 58t-73 39.5t-101.5 17q-155 0 -257 -110.5t-102 -292.5q0 -78 21 -147t62 -124.5t110 -87.5t158 -32q215 0 286 237l170 -20q-20 -67 -51 -124t-79 -109.5t-119.5 -85.5t-159.5 -40l-74 -100h4q27 10 78 10
q65 0 109 -44t44 -105q0 -95 -74.5 -144t-174.5 -49q-23 0 -46 3t-46 9.5t-36 10.5t-35.5 12.5t-25.5 9.5l33 88q64 -39 133 -39q50 0 81.5 19t31.5 61q0 86 -90 86q-47 0 -84 -22l-35 43l110 151q-113 8 -204 55t-149 120.5t-89 165.5t-31 194q0 124 43 228.5t115.5 173
t167 106t197.5 37.5q176 0 298 -89.5t152 -265.5z" />
    <glyph glyph-name="egrave" unicode="&#xe8;" 
d="M887 313l164 -24q-144 -318 -471 -318q-213 0 -347.5 143t-134.5 359q0 260 133 420t357 160q223 0 356 -138.5t133 -394.5v-45h-807q0 -171 91 -265.5t227 -94.5q216 0 299 198zM274 606h631q-18 143 -98 223t-215 80q-75 0 -135.5 -27.5t-98 -72.5t-58.5 -96.5
t-26 -106.5zM565 1225l-266 291h221l180 -291h-135z" />
    <glyph glyph-name="eacute" unicode="&#xe9;" 
d="M887 313l164 -24q-144 -318 -471 -318q-213 0 -347.5 143t-134.5 359q0 260 133 420t357 160q223 0 356 -138.5t133 -394.5v-45h-807q0 -171 91 -265.5t227 -94.5q216 0 299 198zM274 606h631q-18 143 -98 223t-215 80q-75 0 -135.5 -27.5t-98 -72.5t-58.5 -96.5
t-26 -106.5zM438 1225l180 291h222l-267 -291h-135z" />
    <glyph glyph-name="ecircumflex" unicode="&#xea;" 
d="M887 313l164 -24q-144 -318 -471 -318q-213 0 -347.5 143t-134.5 359q0 260 133 420t357 160q223 0 356 -138.5t133 -394.5v-45h-807q0 -171 91 -265.5t227 -94.5q216 0 299 198zM274 606h631q-18 143 -98 223t-215 80q-75 0 -135.5 -27.5t-98 -72.5t-58.5 -96.5
t-26 -106.5zM702 1225l-135 190l-135 -190h-162l203 291h189l206 -291h-166z" />
    <glyph glyph-name="edieresis" unicode="&#xeb;" 
d="M887 313l164 -24q-144 -318 -471 -318q-213 0 -347.5 143t-134.5 359q0 260 133 420t357 160q223 0 356 -138.5t133 -394.5v-45h-807q0 -171 91 -265.5t227 -94.5q216 0 299 198zM274 606h631q-18 143 -98 223t-215 80q-75 0 -135.5 -27.5t-98 -72.5t-58.5 -96.5
t-26 -106.5zM666 1352q0 47 33.5 80.5t80.5 33.5t81 -33.5t34 -80.5t-34 -81t-81 -34t-80.5 34t-33.5 81zM244 1352q0 47 33.5 80.5t80.5 33.5t81 -33.5t34 -80.5t-34 -81t-81 -34t-80.5 34t-33.5 81z" />
    <glyph glyph-name="igrave" unicode="&#xec;" horiz-adv-x="454" 
d="M147 0v1024h160v-1024h-160zM223 1225l-266 291h221l180 -291h-135z" />
    <glyph glyph-name="iacute" unicode="&#xed;" horiz-adv-x="454" 
d="M147 0v1024h160v-1024h-160zM96 1225l180 291h222l-267 -291h-135z" />
    <glyph glyph-name="icircumflex" unicode="&#xee;" horiz-adv-x="454" 
d="M147 0v1024h160v-1024h-160zM360 1225l-135 190l-135 -190h-162l203 291h188l207 -291h-166z" />
    <glyph glyph-name="idieresis" unicode="&#xef;" horiz-adv-x="454" 
d="M147 0v1024h160v-1024h-160zM324 1352q0 47 33.5 80.5t80.5 33.5t81 -33.5t34 -80.5t-34 -81t-81 -34t-80.5 34t-33.5 81zM-98 1352q0 47 33.5 80.5t80.5 33.5t81 -33.5t34 -80.5t-34 -81t-81 -34t-80.5 34t-33.5 81z" />
    <glyph glyph-name="eth" unicode="&#xf0;" horiz-adv-x="1253" 
d="M983 512q0 176 -96.5 286.5t-259.5 110.5t-260 -110.5t-97 -286.5t97 -286.5t260 -110.5t259.5 110.5t96.5 286.5zM430 1188l-78 69l230 125q-99 74 -234 134l113 90q134 -58 256 -150l233 129l78 -74l-229 -125q173 -155 264.5 -368t91.5 -469q0 -119 -32 -221.5
t-94.5 -183t-165.5 -127t-236 -46.5q-108 0 -197 30.5t-149.5 81.5t-102.5 121t-61 147t-19 161q0 82 21.5 160.5t66 147.5t106.5 121t148.5 82t186.5 30q199 0 325 -160h4q-119 268 -290 422z" />
    <glyph glyph-name="ntilde" unicode="&#xf1;" 
d="M825 0v618q0 77 -18.5 133t-51.5 87t-71 45t-84 14q-119 0 -203 -87.5t-84 -240.5v-569h-159v1024h159v-174h4q102 190 326 190q41 0 83 -8.5t90 -32.5t84.5 -61.5t60.5 -102t24 -147.5v-688h-160zM326 1241h-105q13 106 65.5 165.5t147.5 59.5q65 0 158 -34
q12 -5 34 -14t35.5 -14.5t30.5 -10t31 -4.5q44 0 66 29.5t24 64.5h105q-13 -106 -65.5 -166t-147.5 -60q-63 0 -158 35q-12 5 -34 14t-35.5 14.5t-30.5 10t-31 4.5q-44 0 -66 -29.5t-24 -64.5z" />
    <glyph glyph-name="ograve" unicode="&#xf2;" horiz-adv-x="1253" 
d="M1155 512q0 -104 -35 -200t-99.5 -172.5t-166.5 -122.5t-227 -46q-108 0 -197 30.5t-149.5 81.5t-102.5 121t-61 147t-19 161q0 82 21.5 160.5t66 147.5t106.5 121t148.5 82t186.5 30q108 0 197 -30.5t149.5 -81.5t102 -121t60.5 -147t19 -161zM270 512q0 -176 97 -286.5
t260 -110.5t259.5 110.5t96.5 286.5t-96.5 286.5t-259.5 110.5t-260 -110.5t-97 -286.5zM623 1225l-267 291h222l180 -291h-135z" />
    <glyph glyph-name="oacute" unicode="&#xf3;" horiz-adv-x="1253" 
d="M1155 512q0 -104 -35 -200t-99.5 -172.5t-166.5 -122.5t-227 -46q-108 0 -197 30.5t-149.5 81.5t-102.5 121t-61 147t-19 161q0 82 21.5 160.5t66 147.5t106.5 121t148.5 82t186.5 30q108 0 197 -30.5t149.5 -81.5t102 -121t60.5 -147t19 -161zM270 512q0 -176 97 -286.5
t260 -110.5t259.5 110.5t96.5 286.5t-96.5 286.5t-259.5 110.5t-260 -110.5t-97 -286.5zM496 1225l180 291h221l-266 -291h-135z" />
    <glyph glyph-name="ocircumflex" unicode="&#xf4;" horiz-adv-x="1253" 
d="M1155 512q0 -104 -35 -200t-99.5 -172.5t-166.5 -122.5t-227 -46q-108 0 -197 30.5t-149.5 81.5t-102.5 121t-61 147t-19 161q0 82 21.5 160.5t66 147.5t106.5 121t148.5 82t186.5 30q108 0 197 -30.5t149.5 -81.5t102 -121t60.5 -147t19 -161zM270 512q0 -176 97 -286.5
t260 -110.5t259.5 110.5t96.5 286.5t-96.5 286.5t-259.5 110.5t-260 -110.5t-97 -286.5zM760 1225l-135 190l-136 -190h-161l202 291h189l207 -291h-166z" />
    <glyph glyph-name="otilde" unicode="&#xf5;" horiz-adv-x="1253" 
d="M1155 512q0 -104 -35 -200t-99.5 -172.5t-166.5 -122.5t-227 -46q-108 0 -197 30.5t-149.5 81.5t-102.5 121t-61 147t-19 161q0 82 21.5 160.5t66 147.5t106.5 121t148.5 82t186.5 30q108 0 197 -30.5t149.5 -81.5t102 -121t60.5 -147t19 -161zM270 512q0 -176 97 -286.5
t260 -110.5t259.5 110.5t96.5 286.5t-96.5 286.5t-259.5 110.5t-260 -110.5t-97 -286.5zM383 1241h-104q13 106 65.5 165.5t147.5 59.5q64 0 157 -34q12 -5 34 -14t35.5 -14.5t30.5 -10t31 -4.5q44 0 66 29.5t24 64.5h105q-13 -106 -65.5 -166t-147.5 -60q-63 0 -158 35
q-12 5 -34 14t-35.5 14.5t-30.5 10t-31 4.5q-44 0 -66 -29.5t-24 -64.5z" />
    <glyph glyph-name="odieresis" unicode="&#xf6;" horiz-adv-x="1253" 
d="M1155 512q0 -104 -35 -200t-99.5 -172.5t-166.5 -122.5t-227 -46q-108 0 -197 30.5t-149.5 81.5t-102.5 121t-61 147t-19 161q0 82 21.5 160.5t66 147.5t106.5 121t148.5 82t186.5 30q108 0 197 -30.5t149.5 -81.5t102 -121t60.5 -147t19 -161zM270 512q0 -176 97 -286.5
t260 -110.5t259.5 110.5t96.5 286.5t-96.5 286.5t-259.5 110.5t-260 -110.5t-97 -286.5zM723 1352q0 47 34 80.5t81 33.5t80.5 -33.5t33.5 -80.5t-33.5 -81t-80.5 -34t-81 34t-34 81zM301 1352q0 47 34 80.5t81 33.5t80.5 -33.5t33.5 -80.5t-33.5 -81t-80.5 -34t-81 34
t-34 81z" />
    <glyph glyph-name="divide" unicode="&#xf7;" horiz-adv-x="1228" 
d="M96 459v119h1037v-119h-1037zM494 940q0 51 34.5 86t85.5 35t86 -35t35 -86t-35 -86t-86 -35t-85.5 35t-34.5 86zM494 96q0 51 34.5 86t85.5 35t86 -35t35 -86t-35 -86t-86 -35t-85.5 35t-34.5 86z" />
    <glyph glyph-name="oslash" unicode="&#xf8;" horiz-adv-x="1253" 
d="M928 735l-547 -524q96 -96 246 -96q163 0 259.5 110.5t96.5 286.5q0 135 -55 223zM324 287l548 524q-92 98 -245 98q-163 0 -260 -110.5t-97 -286.5q0 -131 54 -225zM61 37l140 133q-103 144 -103 342q0 82 21.5 160.5t66 147.5t106.5 121t148.5 82t186.5 30
q227 0 364 -127l133 127l68 -66l-139 -133q102 -140 102 -342q0 -104 -35 -200t-99.5 -172.5t-166.5 -122.5t-227 -46q-231 0 -363 129l-135 -129z" />
    <glyph glyph-name="ugrave" unicode="&#xf9;" 
d="M825 0v162h-4q-102 -191 -325 -191q-49 0 -93.5 10t-91 36.5t-80.5 67.5t-55.5 109.5t-21.5 155.5v674h159v-631q0 -77 18.5 -133t51.5 -86.5t71.5 -44.5t84.5 -14q119 0 202.5 87t83.5 240v582h160v-1024h-160zM565 1225l-266 291h221l180 -291h-135z" />
    <glyph glyph-name="uacute" unicode="&#xfa;" 
d="M825 0v162h-4q-102 -191 -325 -191q-49 0 -93.5 10t-91 36.5t-80.5 67.5t-55.5 109.5t-21.5 155.5v674h159v-631q0 -77 18.5 -133t51.5 -86.5t71.5 -44.5t84.5 -14q119 0 202.5 87t83.5 240v582h160v-1024h-160zM438 1225l180 291h222l-267 -291h-135z" />
    <glyph glyph-name="ucircumflex" unicode="&#xfb;" 
d="M825 0v162h-4q-102 -191 -325 -191q-49 0 -93.5 10t-91 36.5t-80.5 67.5t-55.5 109.5t-21.5 155.5v674h159v-631q0 -77 18.5 -133t51.5 -86.5t71.5 -44.5t84.5 -14q119 0 202.5 87t83.5 240v582h160v-1024h-160zM702 1225l-135 190l-135 -190h-162l203 291h189l206 -291
h-166z" />
    <glyph glyph-name="udieresis" unicode="&#xfc;" 
d="M825 0v162h-4q-102 -191 -325 -191q-49 0 -93.5 10t-91 36.5t-80.5 67.5t-55.5 109.5t-21.5 155.5v674h159v-631q0 -77 18.5 -133t51.5 -86.5t71.5 -44.5t84.5 -14q119 0 202.5 87t83.5 240v582h160v-1024h-160zM666 1352q0 47 33.5 80.5t80.5 33.5t81 -33.5t34 -80.5
t-34 -81t-81 -34t-80.5 34t-33.5 81zM244 1352q0 47 33.5 80.5t80.5 33.5t81 -33.5t34 -80.5t-34 -81t-81 -34t-80.5 34t-33.5 81z" />
    <glyph glyph-name="yacute" unicode="&#xfd;" horiz-adv-x="1024" 
d="M236 -430l196 450l-416 1004h183l313 -848h4l315 848h177l-598 -1454h-174zM381 1225l180 291h221l-266 -291h-135z" />
    <glyph glyph-name="thorn" unicode="&#xfe;" horiz-adv-x="1251" 
d="M981 508q0 98 -27 174t-73.5 122t-105 69.5t-126.5 23.5q-65 0 -124.5 -24.5t-107 -71t-76 -123.5t-28.5 -174q0 -167 92.5 -278t249.5 -111q104 0 179 54.5t111 142t36 196.5zM154 -430v1970h159v-694h4q17 26 32.5 46t48.5 50t69 49.5t92 34t121 14.5q66 0 131 -18
t127.5 -59.5t109.5 -101.5t76 -150t29 -199q0 -238 -140 -389.5t-354 -151.5q-124 0 -211 56.5t-131 138.5h-4v-596h-159z" />
    <glyph glyph-name="ydieresis" unicode="&#xff;" horiz-adv-x="1024" 
d="M236 -430l196 450l-416 1004h183l313 -848h4l315 848h177l-598 -1454h-174zM608 1352q0 47 34 80.5t81 33.5t81 -33.5t34 -80.5t-34 -81t-81 -34t-81 34t-34 81zM186 1352q0 47 34 80.5t81 33.5t81 -33.5t34 -80.5t-34 -81t-81 -34t-81 34t-34 81z" />
    <glyph glyph-name="dotlessi" unicode="&#x131;" horiz-adv-x="454" 
d="M147 0v1024h160v-1024h-160z" />
    <glyph glyph-name="Lslash" unicode="&#x141;" 
d="M174 0v614l-174 -104v156l174 106v768h172v-663l416 247v-155l-416 -248v-565h721v-156h-893z" />
    <glyph glyph-name="lslash" unicode="&#x142;" horiz-adv-x="454" 
d="M147 0v713l-149 -90v122l149 91v704h160v-606l150 90v-123l-150 -90v-811h-160z" />
    <glyph glyph-name="OE" unicode="&#x152;" horiz-adv-x="2048" 
d="M1233 0v242h-4q-50 -96 -130.5 -159t-162 -87.5t-170.5 -24.5q-134 0 -244 44t-184.5 119t-125.5 178t-74 217.5t-23 240.5q0 170 38.5 308t102.5 228t149.5 150.5t175.5 86.5t185 26q85 0 158 -19.5t119 -45.5t87 -66t59.5 -66t39.5 -61h4v229h719v-156h-547v-516h539
v-155h-539v-557h547v-156h-719zM1233 795q0 291 -125 454.5t-344 163.5q-144 0 -250.5 -82t-160.5 -221t-54 -315q0 -330 124 -499t343 -169q214 0 340.5 180.5t126.5 487.5z" />
    <glyph glyph-name="oe" unicode="&#x153;" horiz-adv-x="1933" 
d="M1067 606h596q-10 141 -87.5 222t-199.5 81q-73 0 -130 -26t-92 -72t-55.5 -95.5t-31.5 -109.5zM1661 344l166 -18q-23 -71 -61.5 -132.5t-93.5 -112.5t-131.5 -80.5t-164.5 -29.5q-146 0 -240.5 56.5t-160.5 171.5q-63 -111 -156 -169.5t-239 -58.5q-224 0 -353 150
t-129 391q0 103 34.5 199.5t97 173t159 122.5t211.5 46q80 0 145 -19t110.5 -54.5t75.5 -73t56 -85.5q68 110 161 171t241 61q91 0 168.5 -30.5t141 -92.5t100 -168.5t36.5 -245.5v-41h-770q0 -55 7.5 -102.5t28 -96.5t53.5 -83.5t87.5 -56t126.5 -21.5q126 0 193.5 59
t99.5 170zM905 522q0 187 -85 287t-226 100q-151 0 -237.5 -110t-86.5 -287q0 -192 85.5 -294.5t228.5 -102.5q75 0 134 29t93.5 72.5t56.5 101t29.5 107t7.5 97.5z" />
    <glyph glyph-name="Scaron" unicode="&#x160;" horiz-adv-x="1366" 
d="M1210 1139h-176q-3 39 -15.5 76.5t-40 74t-66 63.5t-97 43.5t-129.5 16.5q-88 0 -156.5 -24t-109.5 -65t-61.5 -91t-20.5 -107q0 -42 14.5 -76t50.5 -68t106.5 -62t172.5 -48q153 -30 252 -63t172 -83.5t105 -121t32 -170.5q0 -90 -33 -170.5t-98 -147t-176.5 -106
t-255.5 -39.5q-258 0 -401.5 120t-155.5 335h174q46 -299 391 -299q95 0 168.5 26t116.5 68.5t64.5 92.5t21.5 104q0 122 -78 178t-289 100q-140 29 -233 62.5t-161.5 83t-100 119t-31.5 165.5q0 191 144 317t374 126q110 0 197 -24t143.5 -63t96 -96t59.5 -116t30 -131z
M592 1618l-207 291h166l135 -191l135 191h162l-203 -291h-188z" />
    <glyph glyph-name="scaron" unicode="&#x161;" horiz-adv-x="1024" 
d="M924 719h-160q-7 81 -67.5 135.5t-184.5 54.5q-110 0 -178 -43t-68 -116q0 -72 62 -111.5t207 -63.5q83 -14 143.5 -29t113.5 -38.5t85.5 -54t50.5 -73t18 -97.5q0 -59 -24 -112.5t-73 -99.5t-135.5 -73t-201.5 -27q-399 0 -434 330h160q2 -35 16.5 -66t44 -59t83 -44.5
t126.5 -16.5q124 0 201.5 41.5t76.5 117.5q-1 43 -25 69t-89.5 47.5t-194.5 43.5q-85 14 -146.5 34t-115.5 54t-81.5 87t-27.5 124q0 147 116 233.5t304 86.5q174 0 286 -92.5t112 -241.5zM420 1225l-207 291h166l135 -191l135 191h162l-203 -291h-188z" />
    <glyph glyph-name="Ydieresis" unicode="&#x178;" horiz-adv-x="1253" 
d="M545 0v629l-531 911h211l406 -758l397 758h211l-522 -911v-629h-172zM723 1745q0 47 34 81t81 34t80.5 -34t33.5 -81t-33.5 -81t-80.5 -34t-81 34t-34 81zM301 1745q0 47 34 81t81 34t80.5 -34t33.5 -81t-33.5 -81t-80.5 -34t-81 34t-34 81z" />
    <glyph glyph-name="Zcaron" unicode="&#x17d;" horiz-adv-x="1251" 
d="M43 0v143l946 1241h-872v156h1091v-143l-946 -1241h924v-156h-1143zM535 1618l-207 291h166l135 -191l135 191h162l-203 -291h-188z" />
    <glyph glyph-name="zcaron" unicode="&#x17e;" horiz-adv-x="909" 
d="M57 0v139l596 742h-575v143h774v-139l-596 -742h596v-143h-795zM362 1225l-206 291h166l135 -191l135 191h162l-203 -291h-189z" />
    <glyph glyph-name="florin" unicode="&#x192;" 
d="M127 -430l18 156h54q81 0 118 42.5t50 155.5l98 793h-197l13 106h196l64 473q15 116 93.5 180t211.5 64h84l-19 -156h-49q-79 0 -111 -34t-49 -150l-51 -377h219l-12 -106h-219l-104 -815q-13 -100 -39 -166t-68.5 -102t-92.5 -50t-122 -14h-86z" />
    <glyph glyph-name="circumflex" unicode="&#x2c6;" horiz-adv-x="454" 
d="M360 1225l-135 190l-135 -190h-162l203 291h188l207 -291h-166z" />
    <glyph glyph-name="caron" unicode="&#x2c7;" horiz-adv-x="454" 
d="M135 1225l-207 291h166l135 -191l136 191h161l-202 -291h-189z" />
    <glyph glyph-name="uni02C9" unicode="&#x2c9;" horiz-adv-x="454" 
d="M-53 1296v119h561v-119h-561z" />
    <glyph glyph-name="breve" unicode="&#x2d8;" horiz-adv-x="454" 
d="M-88 1516h94q6 -67 66 -113.5t155 -46.5t155.5 46.5t66.5 113.5h94q-6 -130 -86.5 -204.5t-229.5 -74.5q-148 0 -228.5 74.5t-86.5 204.5z" />
    <glyph glyph-name="dotaccent" unicode="&#x2d9;" horiz-adv-x="454" 
d="M113 1352q0 47 33.5 80.5t80.5 33.5t81 -33.5t34 -80.5t-34 -81t-81 -34t-80.5 34t-33.5 81z" />
    <glyph glyph-name="ring" unicode="&#x2da;" horiz-adv-x="454" 
d="M18 1401q0 86 61.5 147.5t147.5 61.5t147.5 -61.5t61.5 -147.5t-61.5 -147.5t-147.5 -61.5t-147.5 61.5t-61.5 147.5zM354 1401q0 53 -37 90t-90 37t-90 -37t-37 -90t37 -90t90 -37t90 37t37 90z" />
    <glyph glyph-name="ogonek" unicode="&#x2db;" horiz-adv-x="454" 
d="M293 0h98q-80 -79 -121 -138.5t-41 -111.5q0 -58 31 -86.5t76 -28.5q44 0 86 17l16 -84q-23 -10 -67 -18.5t-72 -8.5q-55 0 -105 18.5t-87 64.5t-37 110q0 67 55.5 127.5t167.5 138.5z" />
    <glyph glyph-name="tilde" unicode="&#x2dc;" horiz-adv-x="454" 
d="M-16 1241h-105q13 106 65.5 165.5t147.5 59.5q65 0 158 -34q12 -5 34 -14t35.5 -14.5t30.5 -10t31 -4.5q44 0 66 29.5t24 64.5h104q-13 -106 -65.5 -166t-147.5 -60q-62 0 -157 35q-12 5 -34 14t-35.5 14.5t-30.5 10t-31 4.5q-44 0 -66 -29.5t-24 -64.5z" />
    <glyph glyph-name="hungarumlaut" unicode="&#x2dd;" horiz-adv-x="454" 
d="M211 1225l180 291h221l-266 -291h-135zM-141 1225l180 291h221l-266 -291h-135z" />
    <glyph glyph-name="uni03A9" unicode="&#x3a9;" horiz-adv-x="1472" 
d="M408 129v6q-121 115 -200 289.5t-79 386.5q0 158 47 293t129 228.5t195.5 146.5t242.5 53q133 0 246.5 -58t189 -155.5t118 -226.5t42.5 -271q0 -219 -81.5 -400t-198.5 -286v-6h309v-129h-491v94q131 94 220 276.5t89 422.5q-1 108 -30 214t-82.5 195t-140.5 144
t-194 55q-136 0 -240.5 -82t-159 -221.5t-54.5 -311.5q0 -226 90.5 -415t216.5 -277v-94h-490v129h306z" />
    <glyph glyph-name="uni03BC" unicode="&#x3bc;" 
d="M825 0v162h-4q-102 -191 -325 -191q-113 0 -183 82v-483h-159v1454h159v-631q0 -77 18.5 -133t51.5 -86.5t71.5 -44.5t84.5 -14q119 0 202.5 87t83.5 240v582h160v-1024h-160z" />
    <glyph glyph-name="pi" unicode="&#x3c0;" horiz-adv-x="1171" 
d="M1116 987h-166v-674q0 -195 29 -313h-148q-34 66 -34 299v688h-373q-8 -230 -52.5 -534.5t-99.5 -452.5h-149q57 167 100 461.5t49 525.5q-153 0 -227 -24l-25 102q88 57 295 57h815z" />
    <glyph glyph-name="uni2010" unicode="&#x2010;" horiz-adv-x="684" 
d="M90 459v155h504v-155h-504z" />
    <glyph glyph-name="endash" unicode="&#x2013;" horiz-adv-x="1024" 
d="M0 465v143h1024v-143h-1024z" />
    <glyph glyph-name="emdash" unicode="&#x2014;" horiz-adv-x="2048" 
d="M0 465v143h2048v-143h-2048z" />
    <glyph glyph-name="quoteleft" unicode="&#x2018;" horiz-adv-x="569" 
d="M115 1100l235 469l105 -49l-176 -496z" />
    <glyph glyph-name="quoteright" unicode="&#x2019;" horiz-adv-x="569" 
d="M115 1073l176 496l164 -76l-236 -469z" />
    <glyph glyph-name="quotesinglbase" unicode="&#x201a;" horiz-adv-x="569" 
d="M115 -283l176 496l164 -76l-236 -469z" />
    <glyph glyph-name="quotedblleft" unicode="&#x201c;" 
d="M602 1100l236 469l104 -49l-176 -496zM197 1100l235 469l105 -49l-177 -496z" />
    <glyph glyph-name="quotedblright" unicode="&#x201d;" 
d="M197 1073l176 496l164 -76l-236 -469zM602 1073l176 496l164 -76l-235 -469z" />
    <glyph glyph-name="quotedblbase" unicode="&#x201e;" 
d="M197 -283l176 496l164 -76l-236 -469zM602 -283l176 496l164 -76l-235 -469z" />
    <glyph glyph-name="dagger" unicode="&#x2020;" 
d="M489 -248v1182h-350v156h350v450h160v-450h350v-156h-350v-1182h-160z" />
    <glyph glyph-name="daggerdbl" unicode="&#x2021;" 
d="M489 303v686h-350v156h350v395h160v-395h350v-156h-350v-686h350v-156h-350v-395h-160v395h-350v156h350z" />
    <glyph glyph-name="bullet" unicode="&#x2022;" horiz-adv-x="1024" 
d="M127 770q0 160 112.5 272.5t272.5 112.5t272.5 -112.5t112.5 -272.5t-112.5 -272.5t-272.5 -112.5t-272.5 112.5t-112.5 272.5z" />
    <glyph glyph-name="ellipsis" unicode="&#x2026;" horiz-adv-x="2048" 
d="M227 90q0 47 34 81t81 34t81 -34t34 -81t-34 -81t-81 -34t-81 34t-34 81zM909 90q0 47 34 81t81 34t81 -34t34 -81t-34 -81t-81 -34t-81 34t-34 81zM1591 90q0 47 34 81t81 34t81 -34t34 -81t-34 -81t-81 -34t-81 34t-34 81z" />
    <glyph glyph-name="perthousand" unicode="&#x2030;" horiz-adv-x="2048" 
d="M1159 338q0 121 -43.5 188.5t-111.5 67.5t-112 -67.5t-44 -188.5t44 -188.5t112 -67.5t111.5 67.5t43.5 188.5zM700 338q0 159 83 260.5t221 101.5t220.5 -101.5t82.5 -260.5t-83 -261t-220 -102q-138 0 -221 102t-83 261zM16 1178q0 159 82.5 260.5t220.5 101.5
t221 -101.5t83 -260.5t-83 -261t-221 -102q-137 0 -220 102t-83 261zM475 1178q0 121 -44 188.5t-112 67.5t-111.5 -67.5t-43.5 -188.5t43.5 -188.5t111.5 -67.5t112 67.5t44 188.5zM1884 338q0 121 -43.5 188.5t-111.5 67.5t-112 -67.5t-44 -188.5t44 -188.5t112 -67.5
t111.5 67.5t43.5 188.5zM1425 338q0 159 83 260.5t221 101.5t220.5 -101.5t82.5 -260.5t-83 -261t-220 -102q-138 0 -221 102t-83 261zM82 -70l1030 1655h129l-1030 -1655h-129z" />
    <glyph glyph-name="guilsinglleft" unicode="&#x2039;" horiz-adv-x="569" 
d="M319 164l-219 377l226 368h143l-229 -368l223 -377h-144z" />
    <glyph glyph-name="guilsinglright" unicode="&#x203a;" horiz-adv-x="569" 
d="M100 164l230 368l-224 377h144l219 -377l-225 -368h-144z" />
    <glyph glyph-name="fraction" unicode="&#x2044;" horiz-adv-x="342" 
d="M-371 -25l946 1565h138l-946 -1565h-138z" />
    <glyph glyph-name="Euro" unicode="&#x20ac;" 
d="M915 342l172 -14q-9 -68 -36.5 -127.5t-76 -112t-128.5 -83t-182 -30.5q-203 0 -336 153.5t-168 430.5h-154l37 119h107q-3 41 -3 80q0 20 5 102h-146l37 119h123q43 260 169.5 410.5t323.5 150.5q100 0 177 -24.5t123.5 -62.5t77 -92t42.5 -105.5t15 -110.5l-172 -15
q-6 129 -77 198t-188 69q-258 0 -323 -418h577l-37 -119h-552q-3 -53 -3 -102q0 -40 3 -80h495l-37 -119h-446q57 -440 338 -440q82 0 151.5 58t91.5 165z" />
    <glyph glyph-name="afii61289" unicode="&#x2113;" horiz-adv-x="997" 
d="M877 313l73 -65q-137 -262 -381 -262q-88 0 -154 32t-105.5 89t-59.5 127t-23 155v31q-20 -17 -60.5 -51.5t-57.5 -49.5l-48 91q13 11 42.5 36t44.5 38.5t37.5 34t39.5 38.5v594q0 113 18.5 202.5t48.5 146.5t72 94.5t86 53t93 15.5q124 0 188 -95t64 -249
q0 -195 -110 -390t-314 -401l2 -75q0 -175 63 -259.5t162 -84.5q89 0 162 60t117 144zM371 1159v-475q319 360 319 633q0 229 -147 229q-69 0 -120.5 -93.5t-51.5 -293.5z" />
    <glyph glyph-name="trademark" unicode="&#x2122;" horiz-adv-x="2027" 
d="M295 696v738h-270v106h659v-106h-270v-738h-119zM1606 696v738h-4l-293 -738h-74l-293 738h-4v-738h-119v844h195l262 -661l254 661h194v-844h-118z" />
    <glyph glyph-name="Omega" unicode="&#x2126;" horiz-adv-x="1472" 
d="M408 129v6q-121 115 -200 289.5t-79 386.5q0 158 47 293t129 228.5t195.5 146.5t242.5 53q133 0 246.5 -58t189 -155.5t118 -226.5t42.5 -271q0 -219 -81.5 -400t-198.5 -286v-6h309v-129h-491v94q131 94 220 276.5t89 422.5q-1 108 -30 214t-82.5 195t-140.5 144
t-194 55q-136 0 -240.5 -82t-159 -221.5t-54.5 -311.5q0 -226 90.5 -415t216.5 -277v-94h-490v129h306z" />
    <glyph glyph-name="estimated" unicode="&#x212e;" horiz-adv-x="1886" 
d="M1810 735h-1407q-10 0 -10 -8v-426q0 -27 19 -49q104 -109 241.5 -170.5t290.5 -61.5q163 0 308 69.5t251 191.5h125q-119 -141 -300 -222.5t-388 -81.5q-176 0 -336 62t-276 166t-185 249t-69 304t69 304t185 249.5t276 166.5t336 62q178 0 339 -62t277.5 -166.5
t185 -249.5t68.5 -304v-23zM1491 791v430q0 31 -21 49q-104 104 -240 163.5t-286 59.5q-152 0 -289 -61t-241 -168q-21 -21 -21 -54v-419q0 -4 3 -8.5t7 -4.5h1080q8 0 8 13z" />
    <glyph glyph-name="partialdiff" unicode="&#x2202;" horiz-adv-x="1124" 
d="M211 1460l-53 115q147 119 342 119q102 0 193 -49.5t164.5 -146t117 -256t43.5 -361.5q0 -263 -59.5 -462.5t-181.5 -316t-294 -116.5q-96 0 -173 41.5t-124 112t-71.5 157.5t-24.5 184q0 123 36 228.5t97 175.5t140 109.5t165 39.5q66 0 126 -21.5t101.5 -54.5t68 -63.5
t42.5 -58.5h2q2 25 2 92q0 139 -31 259t-83.5 202t-123 129t-149.5 47q-150 0 -272 -105zM496 115h2q95 0 172 79.5t121.5 205t58.5 276.5q-28 85 -108.5 158t-188.5 73q-129 0 -220 -125.5t-91 -300.5q0 -163 69 -264.5t185 -101.5z" />
    <glyph glyph-name="uni2206" unicode="&#x2206;" horiz-adv-x="1329" 
d="M66 0v106l514 1442h176l508 -1439v-109h-1198zM219 127h881l-299 834q-16 53 -68.5 199t-66.5 200h-9q-10 -49 -60 -189.5t-62 -179.5z" />
    <glyph glyph-name="product" unicode="&#x220f;" horiz-adv-x="1437" 
d="M1380 1366h-223v-1575h-149v1575h-580v-1575h-149v1575h-224v141h1325v-141z" />
    <glyph glyph-name="summation" unicode="&#x2211;" 
d="M1092 -209h-1043v105l555 751l-530 752v108h985v-133h-776v-8l495 -694l-536 -725v-8h850v-148z" />
    <glyph glyph-name="minus" unicode="&#x2212;" horiz-adv-x="1228" 
d="M96 459v119h1037v-119h-1037z" />
    <glyph glyph-name="uni2215" unicode="&#x2215;" horiz-adv-x="342" 
d="M-371 -25l946 1565h138l-946 -1565h-138z" />
    <glyph glyph-name="uni2219" unicode="&#x2219;" horiz-adv-x="569" 
d="M164 670q0 51 35 86t86 35t86 -35t35 -86t-35 -86t-86 -35t-86 35t-35 86z" />
    <glyph glyph-name="radical" unicode="&#x221a;" horiz-adv-x="1183" 
d="M1180 1792l-457 -2116h-135l-332 1006l-154 -59l-30 96l280 108l264 -798q30 -133 35 -158l2 -2q3 19 29 158l383 1765h115z" />
    <glyph glyph-name="infinity" unicode="&#x221e;" horiz-adv-x="1622" 
d="M1518 629v-2q0 -148 -95 -241t-225 -93q-96 0 -182.5 59t-200.5 191q-41 -47 -68 -76t-69.5 -66t-78.5 -57.5t-83.5 -35.5t-97.5 -15q-129 0 -220.5 94t-91.5 231q0 143 92.5 236.5t233.5 93.5q57 0 110.5 -19.5t103 -57.5t88.5 -77.5t87 -95.5q98 108 135 142
q124 109 256 108q136 0 221 -89t85 -230zM432 391h2q28 0 55 6.5t54 22t47.5 29.5t47.5 39.5t41.5 40t42.5 45t38 40.5q-91 111 -135 151q-99 89 -205 89q-97 0 -154 -69t-57 -169q2 -96 63.5 -160.5t159.5 -64.5zM1202 854h-2q-40 0 -79.5 -15.5t-77 -45.5t-63 -54t-61 -63
t-47.5 -51q118 -131 186 -182.5t148 -51.5q94 0 150.5 68.5t56.5 158.5q0 110 -59 173t-152 63z" />
    <glyph glyph-name="integral" unicode="&#x222b;" horiz-adv-x="745" 
d="M709 1812l-27 -108q-33 22 -76 22q-62 0 -104 -53q-39 -46 -54.5 -135.5t-15.5 -249.5q0 -168 13.5 -540t13.5 -549q0 -297 -90 -437q-32 -53 -87 -80.5t-118 -27.5q-78 0 -133 35l26 112q54 -24 93 -24q62 0 98 51q69 94 69 373q0 177 -13 555t-13 547q0 180 25 285.5
t85 168.5q75 84 195 84q65 0 113 -29z" />
    <glyph glyph-name="approxequal" unicode="&#x2248;" horiz-adv-x="1163" 
d="M1004 920l63 -56q-95 -198 -266 -198q-58 0 -106 19t-136 67q-61 36 -104 53.5t-90 17.5q-45 0 -84.5 -23.5t-64 -53t-56.5 -78.5l-66 53q47 94 121.5 147.5t163.5 53.5q36 0 74.5 -11t55.5 -18.5t60 -32.5l43 -24q8 -4 39 -21.5t41 -22.5t33 -14.5t42 -12.5t40 -3
q60 0 106 38.5t91 119.5zM1004 565l63 -55q-100 -201 -266 -201q-40 0 -81 12.5t-69 26.5t-92 49q-44 26 -66 38t-58 24t-68 12q-66 0 -113 -42t-94 -118l-66 54q46 95 120.5 148.5t164.5 53.5q36 0 73.5 -10t58 -19.5t57 -30t44.5 -24.5q6 -4 24.5 -14.5t25 -14t22.5 -12
t24 -12t22.5 -9t25.5 -7.5t25 -4t28 -2q60 0 105 38t90 119z" />
    <glyph glyph-name="notequal" unicode="&#x2260;" horiz-adv-x="1163" 
d="M825 1071l-92 -205h324v-100h-365l-139 -307h504v-101h-545l-111 -243l-79 35l94 208h-310v101h353l137 307h-490v100h531l108 242z" />
    <glyph glyph-name="lessequal" unicode="&#x2264;" horiz-adv-x="1163" 
d="M1051 215l-932 475v105l932 475v-121l-826 -401v-7l826 -405v-121zM1057 23h-951v104h951v-104z" />
    <glyph glyph-name="greaterequal" unicode="&#x2265;" horiz-adv-x="1163" 
d="M121 1270l932 -475v-105l-932 -475v121l823 403v6l-823 404v121zM1057 23h-948v104h948v-104z" />
    <glyph glyph-name="lozenge" unicode="&#x25ca;" horiz-adv-x="1185" 
d="M1069 754l-418 -846h-125l-411 846l417 845h125zM928 750l-295 602q-24 55 -39 114h-6q-9 -37 -39 -114l-295 -594l297 -608q24 -58 37 -111h8q13 58 37 108z" />
    <glyph glyph-name="fi" unicode="&#xfb01;" 
d="M254 0v893h-191v131h191v293q0 78 36.5 130t89.5 72.5t120 20.5q90 0 121 -6v-156q-27 6 -97 6q-110 0 -110 -102v-258h207v-131h-207v-893h-160zM831 0v1024h160v-1024h-160zM911 1298q-51 0 -85.5 35t-34.5 86t34.5 86t85.5 35t86 -35t35 -86t-35 -86t-86 -35z" />
    <glyph glyph-name="fl" unicode="&#xfb02;" 
d="M254 0v893h-191v131h191v293q0 78 36.5 130t89.5 72.5t120 20.5q90 0 121 -6v-156q-27 6 -97 6q-110 0 -110 -102v-258h207v-131h-207v-893h-160zM831 0v1540h160v-1540h-160z" />
    <glyph glyph-name="a.superior" horiz-adv-x="739" 
d="M653 1358v-316q0 -42 13 -122h-125v81h-4q-57 -98 -232 -98q-96 0 -163.5 51.5t-67.5 135.5q0 89 58.5 137.5t189.5 52.5l213 8v53q0 65 -38 105.5t-126 40.5q-155 0 -176 -117h-119q33 199 297 199q280 0 280 -211zM535 1141v78l-201 -9q-59 -2 -100 -27t-41 -81
t41.5 -86.5t107.5 -30.5q75 0 134 41t59 115z" />
    <glyph glyph-name="o.superior" horiz-adv-x="815" 
d="M408 1569q88 0 155.5 -27.5t107.5 -75t60.5 -105.5t20.5 -124q0 -88 -38.5 -163t-118.5 -123t-187 -48q-88 0 -155.5 27.5t-108 75t-61 106t-20.5 125.5q0 136 93 234t252 98zM408 1475q-102 0 -164 -67t-62 -171q0 -105 62 -172.5t164 -67.5t163.5 67t61.5 173
q0 104 -62 171t-163 67z" />
    <glyph glyph-name="one.superior" horiz-adv-x="739" 
d="M348 614v746q-82 -62 -201 -100v114q63 21 140.5 74t115.5 92h76v-926h-131z" />
    <glyph glyph-name="two.superior" horiz-adv-x="739" 
d="M68 614v119l313 297q77 74 118.5 134t41.5 124q0 63 -42 98t-124 35q-178 0 -182 -174h-119q1 79 28 137.5t71.5 91.5t96.5 48.5t111 15.5q143 0 217 -66t74 -165q0 -91 -40.5 -168t-127.5 -158l-271 -250h439v-119h-604z" />
    <glyph glyph-name="three.superior" horiz-adv-x="739" 
d="M205 1059v102l280 273h-391v106h541v-106l-270 -260v-5q36 9 59 9q58 0 113.5 -28.5t95 -91t39.5 -145.5q0 -128 -82 -213.5t-240 -85.5q-80 0 -137.5 17t-92 50.5t-52.5 75t-25 97.5l119 8q14 -141 186 -141q89 0 141 48.5t52 131.5q0 86 -55 134t-140 48
q-90 0 -131 -28z" />
    </font>
</defs>
</svg>
